<svg width="20" height="20" xmlns="http://www.w3.org/2000/svg" style="display: none;">
    <!-- Dashboard Icon -->
    <symbol id="overview" viewBox="0 0 20 20">
        <path
            d="M8.125 3.125H4.375C4.04348 3.125 3.72554 3.2567 3.49112 3.49112C3.2567 3.72554 3.125 4.04348 3.125 4.375V8.125C3.125 8.45652 3.2567 8.77446 3.49112 9.00888C3.72554 9.2433 4.04348 9.375 4.375 9.375H8.125C8.45652 9.375 8.77446 9.2433 9.00888 9.00888C9.2433 8.77446 9.375 8.45652 9.375 8.125V4.375C9.375 4.04348 9.2433 3.72554 9.00888 3.49112C8.77446 3.2567 8.45652 3.125 8.125 3.125ZM8.125 8.125H4.375V4.375H8.125V8.125ZM15.625 3.125H11.875C11.5435 3.125 11.2255 3.2567 10.9911 3.49112C10.7567 3.72554 10.625 4.04348 10.625 4.375V8.125C10.625 8.45652 10.7567 8.77446 10.9911 9.00888C11.2255 9.2433 11.5435 9.375 11.875 9.375H15.625C15.9565 9.375 16.2745 9.2433 16.5089 9.00888C16.7433 8.77446 16.875 8.45652 16.875 8.125V4.375C16.875 4.04348 16.7433 3.72554 16.5089 3.49112C16.2745 3.2567 15.9565 3.125 15.625 3.125ZM15.625 8.125H11.875V4.375H15.625V8.125ZM8.125 10.625H4.375C4.04348 10.625 3.72554 10.7567 3.49112 10.9911C3.2567 11.2255 3.125 11.5435 3.125 11.875V15.625C3.125 15.9565 3.2567 16.2745 3.49112 16.5089C3.72554 16.7433 4.04348 16.875 4.375 16.875H8.125C8.45652 16.875 8.77446 16.7433 9.00888 16.5089C9.2433 16.2745 9.375 15.9565 9.375 15.625V11.875C9.375 11.5435 9.2433 11.2255 9.00888 10.9911C8.77446 10.7567 8.45652 10.625 8.125 10.625ZM8.125 15.625H4.375V11.875H8.125V15.625ZM15.625 10.625H11.875C11.5435 10.625 11.2255 10.7567 10.9911 10.9911C10.7567 11.2255 10.625 11.5435 10.625 11.875V15.625C10.625 15.9565 10.7567 16.2745 10.9911 16.5089C11.2255 16.7433 11.5435 16.875 11.875 16.875H15.625C15.9565 16.875 16.2745 16.7433 16.5089 16.5089C16.7433 16.2745 16.875 15.9565 16.875 15.625V11.875C16.875 11.5435 16.7433 11.2255 16.5089 10.9911C16.2745 10.7567 15.9565 10.625 15.625 10.625ZM15.625 15.625H11.875V11.875H15.625V15.625Z"
            fill="currentColor" />
    </symbol>

    <!-- Receipt -->
    <symbol id="receipt" viewBox="0 0 20 20">
        <path
            d="M5.625 8.125C5.625 7.95924 5.69085 7.80027 5.80806 7.68306C5.92527 7.56585 6.08424 7.5 6.25 7.5H13.75C13.9158 7.5 14.0747 7.56585 14.1919 7.68306C14.3092 7.80027 14.375 7.95924 14.375 8.125C14.375 8.29076 14.3092 8.44973 14.1919 8.56694C14.0747 8.68415 13.9158 8.75 13.75 8.75H6.25C6.08424 8.75 5.92527 8.68415 5.80806 8.56694C5.69085 8.44973 5.625 8.29076 5.625 8.125ZM6.25 11.25H13.75C13.9158 11.25 14.0747 11.1842 14.1919 11.0669C14.3092 10.9497 14.375 10.7908 14.375 10.625C14.375 10.4592 14.3092 10.3003 14.1919 10.1831C14.0747 10.0658 13.9158 10 13.75 10H6.25C6.08424 10 5.92527 10.0658 5.80806 10.1831C5.69085 10.3003 5.625 10.4592 5.625 10.625C5.625 10.7908 5.69085 10.9497 5.80806 11.0669C5.92527 11.1842 6.08424 11.25 6.25 11.25ZM18.125 4.375V16.25C18.1249 16.3565 18.0977 16.4613 18.0457 16.5543C17.9938 16.6473 17.919 16.7255 17.8284 16.7815C17.7377 16.8374 17.6343 16.8693 17.5279 16.874C17.4214 16.8788 17.3156 16.8563 17.2203 16.8086L15 15.6984L12.7797 16.8086C12.6929 16.852 12.5971 16.8747 12.5 16.8747C12.4029 16.8747 12.3071 16.852 12.2203 16.8086L10 15.6984L7.77969 16.8086C7.69286 16.852 7.5971 16.8747 7.5 16.8747C7.4029 16.8747 7.30714 16.852 7.22031 16.8086L5 15.6984L2.77969 16.8086C2.68442 16.8563 2.57856 16.8788 2.47214 16.874C2.36572 16.8693 2.26228 16.8374 2.17165 16.7815C2.08101 16.7255 2.00618 16.6473 1.95426 16.5543C1.90234 16.4613 1.87506 16.3565 1.875 16.25V4.375C1.875 4.04348 2.0067 3.72554 2.24112 3.49112C2.47554 3.2567 2.79348 3.125 3.125 3.125H16.875C17.2065 3.125 17.5245 3.2567 17.7589 3.49112C17.9933 3.72554 18.125 4.04348 18.125 4.375ZM16.875 4.375H3.125V15.2391L4.72031 14.4406C4.80714 14.3972 4.9029 14.3746 5 14.3746C5.0971 14.3746 5.19286 14.3972 5.27969 14.4406L7.5 15.5516L9.72031 14.4406C9.80714 14.3972 9.9029 14.3746 10 14.3746C10.0971 14.3746 10.1929 14.3972 10.2797 14.4406L12.5 15.5516L14.7203 14.4406C14.8071 14.3972 14.9029 14.3746 15 14.3746C15.0971 14.3746 15.1929 14.3972 15.2797 14.4406L16.875 15.2391V4.375Z"
            fill="currentColor" />

    </symbol>

    <!-- Text -->
    <symbol id="text" viewBox="0 0 20 20">
        <path
            d="M16.875 3.75H3.125C2.79348 3.75 2.47554 3.8817 2.24112 4.11612C2.00669 4.35054 1.875 4.66848 1.875 5V17.5C1.87359 17.7383 1.94094 17.9719 2.06898 18.1728C2.19703 18.3737 2.38032 18.5335 2.59687 18.6328C2.76236 18.7096 2.94255 18.7496 3.125 18.75C3.41844 18.7493 3.70215 18.6447 3.92578 18.4547C3.92951 18.4523 3.93292 18.4494 3.93594 18.4461L6.44531 16.25H16.875C17.2065 16.25 17.5245 16.1183 17.7589 15.8839C17.9933 15.6495 18.125 15.3315 18.125 15V5C18.125 4.66848 17.9933 4.35054 17.7589 4.11612C17.5245 3.8817 17.2065 3.75 16.875 3.75ZM16.875 15H6.44531C6.15095 14.9999 5.86599 15.1036 5.64062 15.293L5.63125 15.3016L3.125 17.5V5H16.875V15ZM6.875 8.75C6.875 8.58424 6.94085 8.42527 7.05806 8.30806C7.17527 8.19085 7.33424 8.125 7.5 8.125H12.5C12.6658 8.125 12.8247 8.19085 12.9419 8.30806C13.0592 8.42527 13.125 8.58424 13.125 8.75C13.125 8.91576 13.0592 9.07473 12.9419 9.19194C12.8247 9.30915 12.6658 9.375 12.5 9.375H7.5C7.33424 9.375 7.17527 9.30915 7.05806 9.19194C6.94085 9.07473 6.875 8.91576 6.875 8.75ZM6.875 11.25C6.875 11.0842 6.94085 10.9253 7.05806 10.8081C7.17527 10.6908 7.33424 10.625 7.5 10.625H12.5C12.6658 10.625 12.8247 10.6908 12.9419 10.8081C13.0592 10.9253 13.125 11.0842 13.125 11.25C13.125 11.4158 13.0592 11.5747 12.9419 11.6919C12.8247 11.8092 12.6658 11.875 12.5 11.875H7.5C7.33424 11.875 7.17527 11.8092 7.05806 11.6919C6.94085 11.5747 6.875 11.4158 6.875 11.25Z"
            fill="currentColor" />
    </symbol>

    <!-- Cart -->
    <symbol id="cart" viewBox="0 0 18 18">= <path
            d="M9.56255 8.43745V12.375C9.56255 12.5241 9.50328 12.6672 9.39779 12.7727C9.2923 12.8782 9.14923 12.9375 9.00005 12.9375C8.85086 12.9375 8.70779 12.8782 8.6023 12.7727C8.49681 12.6672 8.43755 12.5241 8.43755 12.375V8.43745C8.43755 8.28827 8.49681 8.14519 8.6023 8.03971C8.70779 7.93422 8.85086 7.87495 9.00005 7.87495C9.14923 7.87495 9.2923 7.93422 9.39779 8.03971C9.50328 8.14519 9.56255 8.28827 9.56255 8.43745ZM16.8652 6.89831L15.8907 14.2115C15.8545 14.4818 15.7215 14.7298 15.5162 14.9093C15.311 15.0888 15.0475 15.1876 14.7748 15.1875H3.22528C2.9526 15.1876 2.68913 15.0888 2.48387 14.9093C2.27862 14.7298 2.14555 14.4818 2.10942 14.2115L1.13419 6.89902C1.11293 6.74004 1.12592 6.57835 1.17228 6.4248C1.21864 6.27126 1.29729 6.1294 1.40297 6.00874C1.50864 5.88808 1.6389 5.79141 1.78499 5.72522C1.93109 5.65903 2.08965 5.62484 2.25005 5.62495H4.80731L8.57817 1.31691C8.63096 1.25705 8.69588 1.20912 8.76861 1.17628C8.84135 1.14345 8.92024 1.12646 9.00005 1.12646C9.07985 1.12646 9.15874 1.14345 9.23148 1.17628C9.30422 1.20912 9.36914 1.25705 9.42192 1.31691L13.1928 5.62495H15.75C15.9103 5.62506 16.0686 5.65937 16.2145 5.72561C16.3603 5.79185 16.4904 5.88848 16.5959 6.00904C16.7014 6.12959 16.7799 6.27129 16.8263 6.42465C16.8726 6.57802 16.8856 6.73951 16.8645 6.89831H16.8652ZM6.30216 5.62495H11.6979L9.00005 2.54175L6.30216 5.62495ZM15.75 6.74995H2.25005L3.22528 14.0625H14.7748L15.75 6.74995ZM12.1529 8.3812L11.7591 12.3187C11.7513 12.3924 11.7582 12.467 11.7793 12.538C11.8004 12.6091 11.8354 12.6752 11.8822 12.7327C11.929 12.7903 11.9867 12.8379 12.0519 12.8731C12.1172 12.9082 12.1888 12.9301 12.2625 12.9375C12.2815 12.9385 12.3005 12.9385 12.3195 12.9375C12.4588 12.9373 12.5931 12.8854 12.6964 12.7919C12.7997 12.6984 12.8646 12.5698 12.8785 12.4312L13.2722 8.4937C13.2872 8.34526 13.2425 8.19698 13.1481 8.08147C13.0537 7.96596 12.9172 7.89268 12.7688 7.87777C12.6204 7.86285 12.4721 7.90751 12.3566 8.00192C12.2411 8.09633 12.1678 8.23276 12.1529 8.3812ZM5.84723 8.3812C5.83232 8.23276 5.75904 8.09633 5.64353 8.00192C5.52802 7.90751 5.37973 7.86285 5.2313 7.87777C5.08286 7.89268 4.94643 7.96596 4.85201 8.08147C4.7576 8.19698 4.71294 8.34526 4.72786 8.4937L5.12161 12.4312C5.1356 12.5704 5.20099 12.6995 5.305 12.7931C5.40901 12.8867 5.54418 12.9382 5.68411 12.9375C5.70308 12.9385 5.72209 12.9385 5.74106 12.9375C5.81456 12.9301 5.88589 12.9083 5.95096 12.8733C6.01604 12.8384 6.0736 12.7909 6.12035 12.7338C6.1671 12.6766 6.20212 12.6107 6.22342 12.54C6.24473 12.4693 6.25189 12.395 6.2445 12.3215L5.84723 8.3812Z"
            fill="#858585" />
    </symbol>

    <!-- Calendar -->
    <symbol id="calendar" viewBox="0 0 20 20">

        <path
            d="M16.25 2.5H14.375V1.875C14.375 1.70924 14.3092 1.55027 14.1919 1.43306C14.0747 1.31585 13.9158 1.25 13.75 1.25C13.5842 1.25 13.4253 1.31585 13.3081 1.43306C13.1908 1.55027 13.125 1.70924 13.125 1.875V2.5H6.875V1.875C6.875 1.70924 6.80915 1.55027 6.69194 1.43306C6.57473 1.31585 6.41576 1.25 6.25 1.25C6.08424 1.25 5.92527 1.31585 5.80806 1.43306C5.69085 1.55027 5.625 1.70924 5.625 1.875V2.5H3.75C3.41848 2.5 3.10054 2.6317 2.86612 2.86612C2.6317 3.10054 2.5 3.41848 2.5 3.75V16.25C2.5 16.5815 2.6317 16.8995 2.86612 17.1339C3.10054 17.3683 3.41848 17.5 3.75 17.5H16.25C16.5815 17.5 16.8995 17.3683 17.1339 17.1339C17.3683 16.8995 17.5 16.5815 17.5 16.25V3.75C17.5 3.41848 17.3683 3.10054 17.1339 2.86612C16.8995 2.6317 16.5815 2.5 16.25 2.5ZM5.625 3.75V4.375C5.625 4.54076 5.69085 4.69973 5.80806 4.81694C5.92527 4.93415 6.08424 5 6.25 5C6.41576 5 6.57473 4.93415 6.69194 4.81694C6.80915 4.69973 6.875 4.54076 6.875 4.375V3.75H13.125V4.375C13.125 4.54076 13.1908 4.69973 13.3081 4.81694C13.4253 4.93415 13.5842 5 13.75 5C13.9158 5 14.0747 4.93415 14.1919 4.81694C14.3092 4.69973 14.375 4.54076 14.375 4.375V3.75H16.25V6.25H3.75V3.75H5.625ZM16.25 16.25H3.75V7.5H16.25V16.25Z"
            fill="currentColor" />

    </symbol>

    <!-- Menu -->
    <symbol id="menu" viewBox="0 0 20 20">
        <path
            d="M14.375 5.625H3.125C2.79348 5.625 2.47554 5.7567 2.24112 5.99112C2.0067 6.22554 1.875 6.54348 1.875 6.875V15.625C1.875 15.9565 2.0067 16.2745 2.24112 16.5089C2.47554 16.7433 2.79348 16.875 3.125 16.875H14.375C14.7065 16.875 15.0245 16.7433 15.2589 16.5089C15.4933 16.2745 15.625 15.9565 15.625 15.625V6.875C15.625 6.54348 15.4933 6.22554 15.2589 5.99112C15.0245 5.7567 14.7065 5.625 14.375 5.625ZM14.375 15.625H3.125V6.875H14.375V15.625ZM18.125 4.375V13.75C18.125 13.9158 18.0592 14.0747 17.9419 14.1919C17.8247 14.3092 17.6658 14.375 17.5 14.375C17.3342 14.375 17.1753 14.3092 17.0581 14.1919C16.9408 14.0747 16.875 13.9158 16.875 13.75V4.375H5C4.83424 4.375 4.67527 4.30915 4.55806 4.19194C4.44085 4.07473 4.375 3.91576 4.375 3.75C4.375 3.58424 4.44085 3.42527 4.55806 3.30806C4.67527 3.19085 4.83424 3.125 5 3.125H16.875C17.2065 3.125 17.5245 3.2567 17.7589 3.49112C17.9933 3.72554 18.125 4.04348 18.125 4.375Z"
            fill="currentColor" />

    </symbol>

    <!-- Review -->
    <symbol id="review" viewBox="0 0 20 20">
        <path
            d="M18.6875 7.60087C18.6118 7.36758 18.4692 7.16171 18.2773 7.0089C18.0855 6.85609 17.8529 6.76309 17.6086 6.7415L12.9688 6.34149L11.15 2.01649C11.0553 1.78955 10.8956 1.5957 10.691 1.45935C10.4863 1.323 10.2459 1.25024 10 1.25024C9.75411 1.25024 9.51371 1.323 9.30907 1.45935C9.10443 1.5957 8.94471 1.78955 8.85002 2.01649L7.03674 6.34149L2.39142 6.74384C2.14614 6.76445 1.9124 6.85702 1.71952 7.00994C1.52663 7.16287 1.38319 7.36933 1.30718 7.60345C1.23117 7.83757 1.22598 8.08892 1.29225 8.32598C1.35852 8.56304 1.49331 8.77526 1.6797 8.93603L5.20392 12.0157L4.14767 16.5892C4.09182 16.8285 4.10776 17.079 4.19349 17.3093C4.27923 17.5396 4.43095 17.7396 4.6297 17.8841C4.82845 18.0287 5.0654 18.1114 5.31093 18.1221C5.55647 18.1327 5.79968 18.0707 6.01017 17.9438L9.99455 15.522L13.9875 17.9438C14.198 18.0707 14.4412 18.1327 14.6868 18.1221C14.9323 18.1114 15.1692 18.0287 15.368 17.8841C15.5667 17.7396 15.7185 17.5396 15.8042 17.3093C15.8899 17.079 15.9059 16.8285 15.85 16.5892L14.7945 12.011L18.318 8.93603C18.5044 8.77471 18.6389 8.56189 18.7046 8.32432C18.7704 8.08676 18.7644 7.83506 18.6875 7.60087ZM17.4985 7.9915L13.975 11.0665C13.8035 11.2157 13.676 11.4088 13.606 11.625C13.5361 11.8413 13.5265 12.0725 13.5781 12.2938L14.6367 16.8751L10.6469 14.4532C10.4522 14.3347 10.2287 14.272 10.0008 14.272C9.77288 14.272 9.54936 14.3347 9.3547 14.4532L5.37033 16.8751L6.42189 12.297C6.47357 12.0756 6.46393 11.8444 6.394 11.6281C6.32407 11.4119 6.1965 11.2188 6.02502 11.0696L2.50002 7.99618C2.49973 7.99385 2.49973 7.99149 2.50002 7.98915L7.14377 7.58759C7.37049 7.5676 7.58745 7.4861 7.77125 7.35186C7.95505 7.21763 8.09871 7.03576 8.18674 6.82587L10 2.50634L11.8125 6.82587C11.9005 7.03576 12.0442 7.21763 12.228 7.35186C12.4118 7.4861 12.6288 7.5676 12.8555 7.58759L17.5 7.98915C17.5 7.98915 17.5 7.99384 17.5 7.99462L17.4985 7.9915Z"
            fill="currentColor" />
    </symbol>

    <!-- Inventory -->
    <symbol id="inventory" viewBox="0 0 20 20">
        <path
            d="M17.475 5.16792L10.6 1.4062C10.4163 1.3047 10.2099 1.25146 10 1.25146C9.79013 1.25146 9.58369 1.3047 9.4 1.4062L2.525 5.16948C2.32866 5.27691 2.16477 5.43508 2.05043 5.62747C1.93609 5.81987 1.87551 6.03943 1.875 6.26323V13.7351C1.87551 13.9589 1.93609 14.1785 2.05043 14.3709C2.16477 14.5633 2.32866 14.7214 2.525 14.8289L9.4 18.5921C9.58369 18.6936 9.79013 18.7469 10 18.7469C10.2099 18.7469 10.4163 18.6936 10.6 18.5921L17.475 14.8289C17.6713 14.7214 17.8352 14.5633 17.9496 14.3709C18.0639 14.1785 18.1245 13.9589 18.125 13.7351V6.26401C18.1249 6.03981 18.0645 5.81976 17.9502 5.62692C17.8358 5.43407 17.6717 5.27554 17.475 5.16792ZM10 2.49995L16.2766 5.93745L10 9.37495L3.72344 5.93745L10 2.49995ZM3.125 7.0312L9.375 10.4515V17.1539L3.125 13.7359V7.0312ZM10.625 17.1539V10.4546L16.875 7.0312V13.7328L10.625 17.1539Z"
            fill="currentColor" />

    </symbol>

    <!-- Settings -->
    <symbol id="settings" viewBox="0 0 20 20">
        <path
            d="M10 6.25004C9.25836 6.25004 8.53333 6.46997 7.91665 6.88203C7.29996 7.29408 6.81932 7.87975 6.53549 8.56497C6.25166 9.2502 6.1774 10.0042 6.32209 10.7316C6.46679 11.4591 6.82394 12.1272 7.34839 12.6517C7.87283 13.1761 8.54102 13.5333 9.26845 13.678C9.99588 13.8227 10.7499 13.7484 11.4351 13.4646C12.1203 13.1808 12.706 12.7001 13.118 12.0834C13.5301 11.4667 13.75 10.7417 13.75 10C13.749 9.00579 13.3536 8.05257 12.6505 7.34953C11.9475 6.64649 10.9943 6.25107 10 6.25004ZM10 12.5C9.50558 12.5 9.02223 12.3534 8.61111 12.0787C8.19999 11.804 7.87956 11.4136 7.69034 10.9567C7.50112 10.4999 7.45161 9.99726 7.54807 9.51231C7.64454 9.02736 7.88264 8.5819 8.23227 8.23227C8.5819 7.88264 9.02736 7.64454 9.51231 7.54807C9.99726 7.45161 10.4999 7.50112 10.9567 7.69034C11.4136 7.87956 11.804 8.19999 12.0787 8.61111C12.3534 9.02223 12.5 9.50558 12.5 10C12.5 10.6631 12.2366 11.299 11.7678 11.7678C11.299 12.2366 10.6631 12.5 10 12.5ZM16.875 10.1688C16.8782 10.0563 16.8782 9.94379 16.875 9.83129L18.0407 8.37504C18.1018 8.29858 18.1441 8.20883 18.1642 8.11303C18.1843 8.01722 18.1816 7.91804 18.1563 7.82347C17.9652 7.10519 17.6794 6.41554 17.3063 5.77269C17.2574 5.68857 17.1896 5.617 17.1082 5.5637C17.0269 5.5104 16.9342 5.47683 16.8375 5.46566L14.9844 5.25941C14.9073 5.17816 14.8292 5.10004 14.75 5.02504L14.5313 3.16722C14.52 3.07051 14.4863 2.97777 14.4329 2.89639C14.3795 2.815 14.3077 2.74723 14.2235 2.69847C13.5804 2.32609 12.8908 2.04053 12.1727 1.84925C12.0781 1.8241 11.9788 1.82152 11.883 1.84174C11.7872 1.86196 11.6975 1.90441 11.6211 1.96566L10.1688 3.12504C10.0563 3.12504 9.94379 3.12504 9.83129 3.12504L8.37504 1.96175C8.29858 1.90064 8.20883 1.85833 8.11303 1.83825C8.01722 1.81816 7.91804 1.82086 7.82347 1.84613C7.10531 2.03756 6.4157 2.32338 5.77269 2.69613C5.68857 2.74498 5.617 2.81279 5.5637 2.89417C5.5104 2.97555 5.47683 3.06824 5.46566 3.16488L5.25941 5.02113C5.17816 5.09873 5.10004 5.17686 5.02504 5.2555L3.16722 5.46879C3.07051 5.48004 2.97777 5.51373 2.89639 5.56717C2.815 5.62061 2.74723 5.69233 2.69847 5.7766C2.32609 6.4197 2.04053 7.10929 1.84925 7.82738C1.8241 7.92201 1.82152 8.02122 1.84174 8.11703C1.86196 8.21284 1.90441 8.30255 1.96566 8.37894L3.12504 9.83129C3.12504 9.94379 3.12504 10.0563 3.12504 10.1688L1.96175 11.625C1.90064 11.7015 1.85833 11.7912 1.83825 11.887C1.81816 11.9828 1.82086 12.082 1.84613 12.1766C2.03721 12.8949 2.32306 13.5845 2.69613 14.2274C2.74498 14.3115 2.81279 14.3831 2.89417 14.4364C2.97555 14.4897 3.06824 14.5232 3.16488 14.5344L5.01801 14.7407C5.09561 14.8219 5.17373 14.9 5.25238 14.975L5.46879 16.8329C5.48004 16.9296 5.51373 17.0223 5.56717 17.1037C5.62061 17.1851 5.69233 17.2528 5.7766 17.3016C6.4197 17.674 7.10929 17.9595 7.82738 18.1508C7.92201 18.176 8.02122 18.1786 8.11703 18.1583C8.21284 18.1381 8.30255 18.0957 8.37894 18.0344L9.83129 16.875C9.94379 16.8782 10.0563 16.8782 10.1688 16.875L11.625 18.0407C11.7015 18.1018 11.7912 18.1441 11.887 18.1642C11.9828 18.1843 12.082 18.1816 12.1766 18.1563C12.8949 17.9652 13.5845 17.6794 14.2274 17.3063C14.3115 17.2574 14.3831 17.1896 14.4364 17.1082C14.4897 17.0269 14.5232 16.9342 14.5344 16.8375L14.7407 14.9844C14.8219 14.9073 14.9 14.8292 14.975 14.75L16.8329 14.5313C16.9296 14.52 17.0223 14.4863 17.1037 14.4329C17.1851 14.3795 17.2528 14.3077 17.3016 14.2235C17.674 13.5804 17.9595 12.8908 18.1508 12.1727C18.176 12.0781 18.1786 11.9788 18.1583 11.883C18.1381 11.7872 18.0957 11.6975 18.0344 11.6211L16.875 10.1688ZM15.6172 9.66097C15.6305 9.88682 15.6305 10.1133 15.6172 10.3391C15.6079 10.4937 15.6564 10.6463 15.7532 10.7672L16.8618 12.1524C16.7345 12.5567 16.5717 12.9488 16.375 13.3243L14.6094 13.5243C14.4557 13.5413 14.3137 13.6148 14.211 13.7305C14.0606 13.8996 13.9004 14.0598 13.7313 14.2102C13.6156 14.3129 13.5421 14.4549 13.525 14.6086L13.3289 16.3727C12.9536 16.5694 12.5614 16.7323 12.1571 16.8594L10.7711 15.7508C10.6602 15.6622 10.5225 15.614 10.3805 15.6141H10.343C10.1172 15.6274 9.89073 15.6274 9.66488 15.6141C9.51026 15.6048 9.35769 15.6532 9.23676 15.75L7.84769 16.8594C7.44342 16.7322 7.05125 16.5693 6.67582 16.3727L6.47582 14.6094C6.45875 14.4557 6.38526 14.3137 6.26957 14.211C6.10043 14.0606 5.94026 13.9004 5.78988 13.7313C5.68717 13.6156 5.5452 13.5421 5.39144 13.525L3.62738 13.3282C3.43065 12.9528 3.26777 12.5606 3.14066 12.1563L4.24925 10.7703C4.34606 10.6494 4.3945 10.4968 4.38519 10.3422C4.37191 10.1164 4.37191 9.88995 4.38519 9.6641C4.3945 9.50948 4.34606 9.35691 4.24925 9.23597L3.14066 7.84769C3.26787 7.44342 3.43075 7.05125 3.62738 6.67582L5.39066 6.47582C5.54442 6.45875 5.68639 6.38526 5.7891 6.26957C5.93948 6.10043 6.09965 5.94026 6.26879 5.78988C6.38494 5.6871 6.45873 5.54481 6.47582 5.39066L6.67191 3.62738C7.0473 3.43065 7.43948 3.26777 7.84379 3.14066L9.22972 4.24925C9.35066 4.34606 9.50323 4.3945 9.65785 4.38519C9.8837 4.37191 10.1101 4.37191 10.336 4.38519C10.4906 4.3945 10.6432 4.34606 10.7641 4.24925L12.1524 3.14066C12.5567 3.26787 12.9488 3.43075 13.3243 3.62738L13.5243 5.39066C13.5413 5.54442 13.6148 5.68639 13.7305 5.7891C13.8996 5.93948 14.0598 6.09965 14.2102 6.26879C14.3129 6.38448 14.4549 6.45797 14.6086 6.47504L16.3727 6.67113C16.5694 7.04652 16.7323 7.4387 16.8594 7.84301L15.7508 9.22894C15.6531 9.35089 15.6046 9.50503 15.6149 9.66097H15.6172Z"
            fill="currentColor" />
    </symbol>

    <!-- Logout -->
    <symbol id="logout" viewBox="0 0 20 20">
        <path
            d="M9.375 10V3.75C9.375 3.58424 9.44085 3.42527 9.55806 3.30806C9.67527 3.19085 9.83424 3.125 10 3.125C10.1658 3.125 10.3247 3.19085 10.4419 3.30806C10.5592 3.42527 10.625 3.58424 10.625 3.75V10C10.625 10.1658 10.5592 10.3247 10.4419 10.4419C10.3247 10.5592 10.1658 10.625 10 10.625C9.83424 10.625 9.67527 10.5592 9.55806 10.4419C9.44085 10.3247 9.375 10.1658 9.375 10ZM14.0914 3.85156C13.9526 3.76383 13.7848 3.73425 13.6244 3.76922C13.4639 3.80419 13.3237 3.9009 13.234 4.03844C13.1443 4.17599 13.1123 4.34331 13.145 4.50424C13.1777 4.66516 13.2724 4.80677 13.4086 4.89844C15.2141 6.07578 16.25 7.93516 16.25 10C16.25 11.6576 15.5915 13.2473 14.4194 14.4194C13.2473 15.5915 11.6576 16.25 10 16.25C8.3424 16.25 6.75269 15.5915 5.58058 14.4194C4.40848 13.2473 3.75 11.6576 3.75 10C3.75 7.93516 4.78594 6.07578 6.59141 4.89844C6.72765 4.80677 6.82234 4.66516 6.85502 4.50424C6.88769 4.34331 6.85571 4.17599 6.766 4.03844C6.67629 3.9009 6.53606 3.80419 6.37561 3.76922C6.21517 3.73425 6.0474 3.76383 5.90859 3.85156C3.74219 5.26406 2.5 7.50469 2.5 10C2.5 11.9891 3.29018 13.8968 4.6967 15.3033C6.10322 16.7098 8.01088 17.5 10 17.5C11.9891 17.5 13.8968 16.7098 15.3033 15.3033C16.7098 13.8968 17.5 11.9891 17.5 10C17.5 7.50469 16.2578 5.26406 14.0914 3.85156Z"
            fill="currentColor" />
    </symbol>

    <!-- Search Bar -->
    <symbol id="search" viewBox="0 0 20 20">
        <path
            d="M14.3491 14.3562C14.2558 14.4481 14.1301 14.4998 13.9991 14.5C13.8663 14.4994 13.7388 14.448 13.6429 14.3562L10.9429 11.65C9.80574 12.6051 8.34377 13.0844 6.86187 12.9878C5.37998 12.8912 3.99257 12.2263 2.98903 11.1316C1.98548 10.037 1.44327 8.59717 1.47548 7.11248C1.50769 5.62779 2.11184 4.21286 3.16192 3.16277C4.212 2.11269 5.62694 1.50855 7.11163 1.47633C8.59632 1.44412 10.0361 1.98633 11.1308 2.98988C12.2254 3.99343 12.8903 5.38083 12.9869 6.86273C13.0835 8.34462 12.6042 9.80659 11.6491 10.9437L14.3491 13.6437C14.3964 13.6903 14.4339 13.7457 14.4595 13.8069C14.4851 13.868 14.4983 13.9337 14.4983 14C14.4983 14.0663 14.4851 14.1319 14.4595 14.1931C14.4339 14.2542 14.3964 14.3097 14.3491 14.3562ZM7.24912 12C8.18858 12 9.10695 11.7214 9.88808 11.1995C10.6692 10.6775 11.278 9.93567 11.6375 9.06772C11.9971 8.19977 12.0911 7.24471 11.9079 6.3233C11.7246 5.40189 11.2722 4.55552 10.6079 3.89122C9.94358 3.22692 9.09721 2.77452 8.1758 2.59124C7.25439 2.40797 6.29932 2.50203 5.43137 2.86155C4.56343 3.22106 3.82158 3.82988 3.29964 4.61102C2.7777 5.39215 2.49912 6.31051 2.49912 7.24998C2.50077 8.50925 3.00175 9.71647 3.89219 10.6069C4.78263 11.4973 5.98985 11.9983 7.24912 12Z"
            fill="#1C1C1C" fill-opacity="0.2" />

    </symbol>

    <!-- Filter -->
    <symbol id="filter" viewBox="0 0 20 20">
        <path
            d="M1.95699 3.82322C1.32671 3.11879 1.01157 2.76657 0.999681 2.46723C0.989355 2.20719 1.1011 1.95726 1.30178 1.79157C1.53278 1.60083 2.00541 1.60083 2.95065 1.60083H15.3198C16.265 1.60083 16.7376 1.60083 16.9686 1.79157C17.1693 1.95726 17.2811 2.20719 17.2707 2.46723C17.2588 2.76657 16.9437 3.11879 16.3134 3.82322L11.5582 9.13786C11.4326 9.27828 11.3698 9.34849 11.325 9.42839C11.2852 9.49926 11.2561 9.57556 11.2384 9.65486C11.2185 9.74428 11.2185 9.83849 11.2185 10.0269V14.4828C11.2185 14.6458 11.2185 14.7273 11.1923 14.7977C11.169 14.86 11.1313 14.9158 11.0821 14.9604C11.0264 15.011 10.9508 15.0413 10.7995 15.1018L7.96613 16.2351C7.65984 16.3576 7.5067 16.4189 7.38376 16.3934C7.27626 16.371 7.18192 16.3071 7.12125 16.2156C7.05187 16.111 7.05187 15.946 7.05187 15.6161V10.0269C7.05187 9.83849 7.05187 9.74428 7.03197 9.65486C7.01432 9.57556 6.98517 9.49926 6.94545 9.42839C6.90065 9.34849 6.83783 9.27828 6.71219 9.13786L1.95699 3.82322Z"
            fill="none" stroke="#2D1C5B" stroke-width="1.5" stroke-linecap="round"
            stroke-linejoin="round" />
    </symbol>

    <!-- Notification -->
    <symbol id="notification" viewBox="0 0 20 20">
        <path
            d="M17.5987 13.7453C17.1651 12.9984 16.5206 10.8852 16.5206 8.125C16.5206 6.4674 15.8621 4.87769 14.69 3.70558C13.5179 2.53348 11.9282 1.875 10.2706 1.875C8.61298 1.875 7.02326 2.53348 5.85116 3.70558C4.67906 4.87769 4.02058 6.4674 4.02058 8.125C4.02058 10.8859 3.37527 12.9984 2.94167 13.7453C2.83095 13.9352 2.77225 14.1509 2.77149 14.3707C2.77074 14.5905 2.82795 14.8066 2.93737 14.9973C3.04679 15.1879 3.20455 15.3463 3.39472 15.4565C3.5849 15.5667 3.80078 15.6248 4.02058 15.625H7.20886C7.35306 16.3306 7.73654 16.9647 8.29443 17.4201C8.85233 17.8756 9.5504 18.1243 10.2706 18.1243C10.9908 18.1243 11.6888 17.8756 12.2467 17.4201C12.8046 16.9647 13.1881 16.3306 13.3323 15.625H16.5206C16.7403 15.6247 16.9561 15.5665 17.1462 15.4562C17.3362 15.346 17.4939 15.1875 17.6032 14.9969C17.7125 14.8063 17.7697 14.5903 17.7689 14.3705C17.7681 14.1508 17.7094 13.9351 17.5987 13.7453ZM10.2706 16.875C9.88294 16.8749 9.50486 16.7546 9.18839 16.5308C8.87192 16.3069 8.63261 15.9905 8.50339 15.625H12.0378C11.9086 15.9905 11.6692 16.3069 11.3528 16.5308C11.0363 16.7546 10.6582 16.8749 10.2706 16.875ZM4.02058 14.375C4.62214 13.3406 5.27058 10.9438 5.27058 8.125C5.27058 6.79892 5.79736 5.52715 6.73504 4.58947C7.67273 3.65178 8.9445 3.125 10.2706 3.125C11.5967 3.125 12.8684 3.65178 13.8061 4.58947C14.7438 5.52715 15.2706 6.79892 15.2706 8.125C15.2706 10.9414 15.9175 13.3383 16.5206 14.375H4.02058Z"
            fill="#1C1C1C" />
    </symbol>

    <!-- Settings
    <symbol id="settings" viewBox="0 0 32 32">
        <path
            d="M16 9.99989C14.8133 9.99989 13.6533 10.3518 12.6666 11.0111C11.6799 11.6704 10.9108 12.6074
    10.4567 13.7038C10.0026 14.8002 9.88377 16.0066 10.1153 17.1704C10.3468 18.3343 10.9182 19.4034
    11.7574 20.2425C12.5965 21.0817 13.6656 21.6531 14.8295 21.8846C15.9933 22.1161 17.1997 21.9973
    18.2961 21.5432C19.3925 21.089 20.3295 20.32 20.9888 19.3333C21.6481 18.3466 22 17.1866 22
    15.9999C21.9983 14.4091 21.3657 12.8839 20.2408 11.7591C19.1159 10.6342 17.5908 10.0015 16
    9.99989ZM16 19.9999C15.2089 19.9999 14.4355 19.7653 13.7777 19.3258C13.1199 18.8862 12.6072
    18.2615 12.3045 17.5306C12.0017 16.7997 11.9225 15.9955 12.0769 15.2195C12.2312 14.4436 12.6122
    13.7309 13.1716 13.1715C13.731 12.6121 14.4437 12.2311 15.2196 12.0768C15.9956 11.9224 16.7998
    12.0016 17.5307 12.3044C18.2616 12.6071 18.8863 13.1198 19.3259 13.7776C19.7654 14.4354 20
    15.2088 20 15.9999C20 17.0608 19.5786 18.0782 18.8284 18.8283C18.0783 19.5785 17.0609 19.9999 16
    19.9999ZM29.7425 13.4011C29.7146 13.2603 29.6568 13.1272 29.5729 13.0107C29.489 12.8942 29.381
    12.7972 29.2562 12.7261L25.5275 10.6011L25.5125 6.39864C25.512 6.25391 25.4802 6.111 25.4191
    5.97979C25.358 5.84857 25.2692 5.73218 25.1587 5.63864C23.8062 4.49452 22.2485 3.61773 20.5687
    3.05489C20.4365 3.01012 20.2963 2.99355 20.1572 3.00625C20.0181 3.01895 19.8832 3.06065 19.7612
    3.12864L16 5.23114L12.235 3.12489C12.1129 3.05651 11.9779 3.01451 11.8386 3.00159C11.6993
    2.98867 11.5588 3.00513 11.4262 3.04989C9.74768 3.61684 8.19186 4.49698 6.84124 5.64364C6.73095
    5.73704 6.64222 5.85323 6.58115 5.98422C6.52008 6.11521 6.48813 6.25787 6.48749 6.40239L6.46874
    10.6086L2.73999 12.7336C2.61525 12.8047 2.50725 12.9017 2.42335 13.0182C2.33944 13.1347 2.2816
    13.2678 2.25374 13.4086C1.91249 15.1235 1.91249 16.8888 2.25374 18.6036C2.2816 18.7445 2.33944
    18.8776 2.42335 18.9941C2.50725 19.1106 2.61525 19.2076 2.73999 19.2786L6.46874 21.4036L6.48374
    25.6061C6.4842 25.7509 6.51606 25.8938 6.57714 26.025C6.63821 26.1562 6.72704 26.2726 6.83749
    26.3661C8.19008 27.5103 9.74769 28.3871 11.4275 28.9499C11.5598 28.9947 11.7 29.0112 11.8391
    28.9985C11.9781 28.9858 12.113 28.9441 12.235 28.8761L16 26.7686L19.765 28.8749C19.914 28.9579
    20.0819 29.001 20.2525 28.9999C20.3617 28.9999 20.4702 28.9821 20.5737 28.9474C22.2521 28.3812
    23.8079 27.5019 25.1587 26.3561C25.269 26.2627 25.3578 26.1466 25.4188 26.0156C25.4799 25.8846
    25.5119 25.7419 25.5125 25.5974L25.5312 21.3911L29.26 19.2661C29.3847 19.1951 29.4927 19.0981
    29.5766 18.9816C29.6605 18.8651 29.7184 18.732 29.7462 18.5911C30.0856 16.8777 30.0843 15.1141
    29.7425 13.4011ZM27.8675 17.7649L24.2962 19.7961C24.1398 19.8851 24.0102 20.0147 23.9212
    20.1711C23.8487 20.2961 23.7725 20.4286 23.695 20.5536C23.5958 20.7113 23.5429 20.8936 23.5425
    21.0799L23.5237 25.1111C22.5638 25.865 21.4944 26.4677 20.3525 26.8986L16.75 24.8911C16.6004
    24.8084 16.4322 24.7654 16.2612 24.7661H16.2375C16.0862 24.7661 15.9337 24.7661 15.7825
    24.7661C15.6036 24.7617 15.4267 24.8048 15.27 24.8911L11.665 26.9036C10.5206 26.4761 9.44827
    25.8762 8.48499 25.1249L8.47124 21.0999C8.47063 20.9133 8.4178 20.7306 8.31874 20.5724C8.24124
    20.4474 8.16499 20.3224 8.09374 20.1899C8.0054 20.031 7.87585 19.8989 7.71874 19.8074L4.14374
    17.7711C3.95874 16.6009 3.95874 15.4089 4.14374 14.2386L7.70874 12.2036C7.86522 12.1147 7.99477
    11.9851 8.08374 11.8286C8.15624 11.7036 8.23249 11.5711 8.30999 11.4461C8.4092 11.2885 8.46204
    11.1061 8.46249 10.9199L8.48124 6.88864C9.44115 6.13483 10.5106 5.53204 11.6525 5.10114L15.25
    7.10864C15.4066 7.19543 15.5836 7.2386 15.7625 7.23364C15.9137 7.23364 16.0662 7.23364 16.2175
    7.23364C16.3964 7.23811 16.5732 7.19498 16.73 7.10864L20.335 5.09614C21.4794 5.52374 22.5517
    6.12357 23.515 6.87489L23.5287 10.8999C23.5294 11.0865 23.5822 11.2692 23.6812 11.4274C23.7587
    11.5524 23.835 11.6774 23.9062 11.8099C23.9946 11.9688 24.1241 12.1009 24.2812 12.1924L27.8562
    14.2286C28.0437 15.3998 28.0458 16.5931 27.8625 17.7649H27.8675Z"
            fill="#1C1C1C" />
    </symbol> -->

    <!-- Up -->
    <symbol id="up" viewBox="0 0 16 16">
        <path fill-rule="evenodd" clip-rule="evenodd"
            d="M8.45488 5.60777L14 4L12.6198 9.6061L10.898 7.9532L8.12069 10.8463C8.02641 10.9445 7.89615 11 7.76 11C7.62385 11 7.49359 10.9445 7.39931 10.8463L5.36 8.72199L2.36069 11.8463C2.16946 12.0455 1.85294 12.0519 1.65373 11.8607C1.45453 11.6695 1.44807 11.3529 1.63931 11.1537L4.99931 7.65373C5.09359 7.55552 5.22385 7.5 5.36 7.5C5.49615 7.5 5.62641 7.55552 5.72069 7.65373L7.76 9.77801L10.1766 7.26067L8.45488 5.60777Z"
            fill="#1C1C1C" />
    </symbol>

    <!-- Down -->
    <symbol id="down" viewBox="0 0 16 16">
        <path fill-rule="evenodd" clip-rule="evenodd"
            d="M14.3463 3.63931C14.5455 3.83054 14.5519 4.14706 14.3607 4.34627L11.0007 7.84627C10.9064 7.94448 10.7761 8 10.64 8C10.5039 8 10.3736 7.94448 10.2793 7.84627L8.24 5.72199L5.82335 8.23933L7.54513 9.89223L2 11.5L3.38019 5.8939L5.10197 7.5468L7.87931 4.65373C7.97359 4.55552 8.10385 4.5 8.24 4.5C8.37615 4.5 8.50641 4.55552 8.60069 4.65373L10.64 6.77801L13.6393 3.65373C13.8305 3.45453 14.1471 3.44807 14.3463 3.63931Z"
            fill="#1C1C1C" />
    </symbol>

    <!-- Suspend -->
    <symbol id="suspend" viewBox="0 0 14 14">
        <path
            d="M7 0.5C5.71442 0.5 4.45772 0.881218 3.3888 1.59545C2.31988 2.30968 1.48676 3.32484 0.994786 4.51256C0.502816 5.70028 0.374095 7.00721 0.624899 8.26809C0.875703 9.52896 1.49477 10.6872 2.40381 11.5962C3.31285 12.5052 4.47104 13.1243 5.73192 13.3751C6.99279 13.6259 8.29973 13.4972 9.48744 13.0052C10.6752 12.5132 11.6903 11.6801 12.4046 10.6112C13.1188 9.54229 13.5 8.28558 13.5 7C13.4982 5.27665 12.8128 3.62441 11.5942 2.40582C10.3756 1.18722 8.72335 0.50182 7 0.5ZM12.5 7C12.5013 8.28596 12.0497 9.53129 11.2244 10.5175L3.4825 2.775C4.28563 2.10686 5.26243 1.68128 6.29861 1.54805C7.33479 1.41482 8.38749 1.57946 9.33351 2.0227C10.2795 2.46595 11.0797 3.16946 11.6405 4.05091C12.2013 4.93236 12.4994 5.95529 12.5 7ZM1.5 7C1.49872 5.71404 1.95035 4.46871 2.77563 3.4825L10.5175 11.225C9.71438 11.8931 8.73757 12.3187 7.70139 12.452C6.66521 12.5852 5.61252 12.4205 4.6665 11.9773C3.72048 11.5341 2.92026 10.8305 2.3595 9.94909C1.79873 9.06764 1.5006 8.04471 1.5 7Z"
            fill="#646465" />
    </symbol>

    <!-- Bin -->
    <symbol id="bin" viewBox="0 0 17 16">
        <path fill-rule="evenodd" clip-rule="evenodd"
            d="M12.5384 15.0002H4.46146C3.82421 15.0002 3.30762 14.4779 3.30762 13.8336V3.3335H13.6922V13.8336C13.6922 14.4779 13.1756 15.0002 12.5384 15.0002Z"
            stroke="#EF3826" stroke-width="1.2" stroke-linecap="round" stroke-linejoin="round" />
        <path d="M6.76953 11.5002V6.8335" stroke="#EF3826" stroke-width="1.2"
            stroke-linecap="round" stroke-linejoin="round" />
        <path d="M10.2305 11.5002V6.8335" stroke="#EF3826" stroke-width="1.2"
            stroke-linecap="round" stroke-linejoin="round" />
        <path d="M1 3.33323H16" stroke="#EF3826" stroke-width="1.2" stroke-linecap="round"
            stroke-linejoin="round" />
        <path fill-rule="evenodd" clip-rule="evenodd"
            d="M10.2306 1H6.76908C6.13183 1 5.61523 1.52234 5.61523 2.16667V3.33335H11.3845V2.16667C11.3845 1.52234 10.8679 1 10.2306 1Z"
            stroke="#EF3826" stroke-width="1.2" stroke-linecap="round" stroke-linejoin="round" />
    </symbol>

    <!-- Send -->
    <symbol id="send" viewBox="0 0 14 16">
        <path
            d="M12.1562 0.59375C12.5547 0.359375 13.0703 0.6875 12.9766 1.15625L11.2891 11.2812C11.2422 11.6562 10.8438 11.8672 10.5156 11.7266L7.60938 10.4844L6.10938 12.3125C5.78125 12.7109 5.125 12.5 5.125 11.9375V10.0391L10.75 3.17188C10.8672 3.03125 10.6797 2.86719 10.5625 2.98438L3.83594 8.91406L1.32812 7.85938C0.90625 7.69531 0.859375 7.08594 1.28125 6.85156L12.1562 0.59375Z"
            fill="#4880FF" />
    </symbol>

    <!-- receipt -->
    <symbol id="receipt" viewBox="0 0 40 40">
        <path
            d="M11.25 16.25C11.25 15.9185 11.3817 15.6005 11.6161 15.3661C11.8505 15.1317 12.1685 15 12.5 15H27.5C27.8315 15 28.1495 15.1317 28.3839 15.3661C28.6183 15.6005 28.75 15.9185 28.75 16.25C28.75 16.5815 28.6183 16.8995 28.3839 17.1339C28.1495 17.3683 27.8315 17.5 27.5 17.5H12.5C12.1685 17.5 11.8505 17.3683 11.6161 17.1339C11.3817 16.8995 11.25 16.5815 11.25 16.25ZM12.5 22.5H27.5C27.8315 22.5 28.1495 22.3683 28.3839 22.1339C28.6183 21.8995 28.75 21.5815 28.75 21.25C28.75 20.9185 28.6183 20.6005 28.3839 20.3661C28.1495 20.1317 27.8315 20 27.5 20H12.5C12.1685 20 11.8505 20.1317 11.6161 20.3661C11.3817 20.6005 11.25 20.9185 11.25 21.25C11.25 21.5815 11.3817 21.8995 11.6161 22.1339C11.8505 22.3683 12.1685 22.5 12.5 22.5ZM36.25 8.75V32.5C36.2499 32.713 36.1953 32.9225 36.0915 33.1086C35.9876 33.2946 35.838 33.451 35.6567 33.5629C35.4754 33.6749 35.2686 33.7386 35.0557 33.7481C34.8429 33.7576 34.6312 33.7125 34.4406 33.6172L30 31.3969L25.5594 33.6172C25.3857 33.7041 25.1942 33.7493 25 33.7493C24.8058 33.7493 24.6143 33.7041 24.4406 33.6172L20 31.3969L15.5594 33.6172C15.3857 33.7041 15.1942 33.7493 15 33.7493C14.8058 33.7493 14.6143 33.7041 14.4406 33.6172L10 31.3969L5.55938 33.6172C5.36885 33.7125 5.15712 33.7576 4.94428 33.7481C4.73144 33.7386 4.52457 33.6749 4.34329 33.5629C4.16201 33.451 4.01235 33.2946 3.90852 33.1086C3.80468 32.9225 3.75011 32.713 3.75 32.5V8.75C3.75 8.08696 4.01339 7.45107 4.48223 6.98223C4.95107 6.51339 5.58696 6.25 6.25 6.25H33.75C34.413 6.25 35.0489 6.51339 35.5178 6.98223C35.9866 7.45107 36.25 8.08696 36.25 8.75ZM33.75 8.75H6.25V30.4781L9.44062 28.8812C9.61429 28.7943 9.80581 28.7491 10 28.7491C10.1942 28.7491 10.3857 28.7943 10.5594 28.8812L15 31.1031L19.4406 28.8812C19.6143 28.7943 19.8058 28.7491 20 28.7491C20.1942 28.7491 20.3857 28.7943 20.5594 28.8812L25 31.1031L29.4406 28.8812C29.6143 28.7943 29.8058 28.7491 30 28.7491C30.1942 28.7491 30.3857 28.7943 30.5594 28.8812L33.75 30.4781V8.75Z"
            fill="white" />
    </symbol>

    <!-- users -->
    <symbol id="users" viewBox="0 0 40 40">
        <path
            d="M18.3203 24.6749C19.9956 23.5596 21.2676 21.9347 21.948 20.0406C22.6284 18.1465 22.6812 16.0837 22.0986 14.1572C21.516 12.2308 20.3289 10.543 18.7129 9.34338C17.0968 8.14378 15.1376 7.49609 13.125 7.49609C11.1124 7.49609 9.1532 8.14378 7.53716 9.34338C5.92111 10.543 4.73402 12.2308 4.15141 14.1572C3.5688 16.0837 3.62162 18.1465 4.30204 20.0406C4.98247 21.9347 6.25439 23.5596 7.9297 24.6749C4.89922 25.7918 2.31112 27.8587 0.551579 30.5671C0.459104 30.7045 0.39487 30.859 0.362612 31.0215C0.330354 31.184 0.330715 31.3512 0.363675 31.5136C0.396634 31.6759 0.461534 31.8301 0.554602 31.9671C0.64767 32.1042 0.76705 32.2214 0.905802 32.3119C1.04455 32.4024 1.19991 32.4644 1.36284 32.4943C1.52577 32.5242 1.69303 32.5215 1.85489 32.4862C2.01674 32.4509 2.16997 32.3838 2.30567 32.2888C2.44137 32.1938 2.55682 32.0727 2.64533 31.9327C3.78031 30.1871 5.33339 28.7526 7.16351 27.7595C8.99364 26.7665 11.0428 26.2464 13.125 26.2464C15.2072 26.2464 17.2564 26.7665 19.0865 27.7595C20.9166 28.7526 22.4697 30.1871 23.6047 31.9327C23.788 32.2052 24.0713 32.3946 24.3931 32.4599C24.715 32.5253 25.0496 32.4613 25.3247 32.2819C25.5998 32.1025 25.7932 31.822 25.8631 31.5011C25.9331 31.1802 25.8739 30.8447 25.6985 30.5671C23.9389 27.8587 21.3508 25.7918 18.3203 24.6749ZM6.25002 16.8749C6.25002 15.5152 6.65323 14.1859 7.40866 13.0554C8.1641 11.9248 9.23783 11.0436 10.4941 10.5232C11.7503 10.0029 13.1326 9.86673 14.4663 10.132C15.7999 10.3973 17.0249 11.0521 17.9864 12.0135C18.9479 12.975 19.6026 14.2 19.8679 15.5337C20.1332 16.8673 19.997 18.2496 19.4767 19.5058C18.9563 20.7621 18.0751 21.8358 16.9446 22.5912C15.814 23.3467 14.4848 23.7499 13.125 23.7499C11.3023 23.7478 9.55481 23.0228 8.26594 21.734C6.97708 20.4451 6.25208 18.6976 6.25002 16.8749ZM39.0844 32.2968C38.8067 32.4778 38.4685 32.5412 38.1442 32.4729C37.8198 32.4046 37.5358 32.2103 37.3547 31.9327C36.2211 30.186 34.6682 28.7509 32.8377 27.7583C31.0072 26.7657 28.9573 26.2471 26.875 26.2499C26.5435 26.2499 26.2256 26.1182 25.9911 25.8838C25.7567 25.6494 25.625 25.3314 25.625 24.9999C25.625 24.6684 25.7567 24.3504 25.9911 24.116C26.2256 23.8816 26.5435 23.7499 26.875 23.7499C27.8875 23.7489 28.8872 23.5244 29.8028 23.0923C30.7184 22.6601 31.5273 22.0311 32.1716 21.2502C32.8159 20.4692 33.2798 19.5556 33.5301 18.5745C33.7804 17.5935 33.811 16.5693 33.6195 15.5751C33.4281 14.5809 33.0195 13.6413 32.4228 12.8233C31.8262 12.0054 31.0562 11.3293 30.168 10.8434C29.2798 10.3575 28.2952 10.0738 27.2846 10.0125C26.274 9.95123 25.2623 10.1139 24.3219 10.489C24.1686 10.5552 24.0035 10.5901 23.8365 10.5915C23.6694 10.5929 23.5038 10.5609 23.3493 10.4972C23.1949 10.4335 23.0548 10.3395 22.9373 10.2208C22.8198 10.102 22.7273 9.96092 22.6653 9.80582C22.6033 9.65072 22.5729 9.48476 22.5761 9.31774C22.5793 9.15072 22.6159 8.98604 22.6838 8.83342C22.7518 8.6808 22.8496 8.54333 22.9715 8.42915C23.0934 8.31498 23.237 8.2264 23.3938 8.16865C25.5461 7.31029 27.94 7.2794 30.1137 8.08194C32.2874 8.88448 34.0869 10.4636 35.165 12.5146C36.2431 14.5656 36.5235 16.9433 35.952 19.1888C35.3806 21.4344 33.9977 23.3887 32.0703 24.6749C35.1008 25.7918 37.6889 27.8587 39.4485 30.5671C39.6295 30.8447 39.6929 31.1829 39.6246 31.5073C39.5563 31.8317 39.362 32.1157 39.0844 32.2968Z"
            fill="white" />
    </symbol>

    <!-- currency -->
    <symbol id="currency" viewBox="0 0 40 40">
        <path
            d="M20 3.75C16.7861 3.75 13.6443 4.70305 10.972 6.48862C8.29969 8.27419 6.21689 10.8121 4.98696 13.7814C3.75704 16.7507 3.43524 20.018 4.06225 23.1702C4.68926 26.3224 6.23692 29.2179 8.50952 31.4905C10.7821 33.7631 13.6776 35.3107 16.8298 35.9378C19.982 36.5648 23.2493 36.243 26.2186 35.013C29.1879 33.7831 31.7258 31.7003 33.5114 29.028C35.297 26.3557 36.25 23.2139 36.25 20C36.2455 15.6916 34.5319 11.561 31.4855 8.51454C28.439 5.46806 24.3084 3.75455 20 3.75ZM20 33.75C17.2805 33.75 14.6221 32.9436 12.3609 31.4327C10.0997 29.9218 8.33737 27.7744 7.29666 25.2619C6.25596 22.7494 5.98366 19.9847 6.51421 17.3175C7.04476 14.6503 8.35432 12.2003 10.2773 10.2773C12.2003 8.35431 14.6503 7.04475 17.3175 6.5142C19.9848 5.98366 22.7494 6.25595 25.2619 7.29666C27.7744 8.33736 29.9218 10.0997 31.4327 12.3609C32.9436 14.6221 33.75 17.2805 33.75 20C33.7459 23.6455 32.2959 27.1404 29.7182 29.7182C27.1404 32.2959 23.6455 33.7459 20 33.75ZM26.25 23.125C26.25 24.2853 25.7891 25.3981 24.9686 26.2186C24.1481 27.0391 23.0353 27.5 21.875 27.5H21.25V28.75C21.25 29.0815 21.1183 29.3995 20.8839 29.6339C20.6495 29.8683 20.3315 30 20 30C19.6685 30 19.3505 29.8683 19.1161 29.6339C18.8817 29.3995 18.75 29.0815 18.75 28.75V27.5H16.25C15.9185 27.5 15.6005 27.3683 15.3661 27.1339C15.1317 26.8995 15 26.5815 15 26.25C15 25.9185 15.1317 25.6005 15.3661 25.3661C15.6005 25.1317 15.9185 25 16.25 25H21.875C22.3723 25 22.8492 24.8025 23.2008 24.4508C23.5525 24.0992 23.75 23.6223 23.75 23.125C23.75 22.6277 23.5525 22.1508 23.2008 21.7992C22.8492 21.4475 22.3723 21.25 21.875 21.25H18.125C16.9647 21.25 15.8519 20.7891 15.0314 19.9686C14.2109 19.1481 13.75 18.0353 13.75 16.875C13.75 15.7147 14.2109 14.6019 15.0314 13.7814C15.8519 12.9609 16.9647 12.5 18.125 12.5H18.75V11.25C18.75 10.9185 18.8817 10.6005 19.1161 10.3661C19.3505 10.1317 19.6685 10 20 10C20.3315 10 20.6495 10.1317 20.8839 10.3661C21.1183 10.6005 21.25 10.9185 21.25 11.25V12.5H23.75C24.0815 12.5 24.3995 12.6317 24.6339 12.8661C24.8683 13.1005 25 13.4185 25 13.75C25 14.0815 24.8683 14.3995 24.6339 14.6339C24.3995 14.8683 24.0815 15 23.75 15H18.125C17.6277 15 17.1508 15.1975 16.7992 15.5492C16.4476 15.9008 16.25 16.3777 16.25 16.875C16.25 17.3723 16.4476 17.8492 16.7992 18.2008C17.1508 18.5525 17.6277 18.75 18.125 18.75H21.875C23.0353 18.75 24.1481 19.2109 24.9686 20.0314C25.7891 20.8519 26.25 21.9647 26.25 23.125Z"
            fill="white" />
    </symbol>

    <!-- caret-down -->
    <symbol id="caret-down" viewBox="0 0 14 15">
        <path
            d="M11.6845 6.05953L7.30953 10.4345C7.2689 10.4752 7.22065 10.5075 7.16754 10.5295C7.11442 10.5515 7.05749 10.5628 7 10.5628C6.9425 10.5628 6.88557 10.5515 6.83246 10.5295C6.77935 10.5075 6.7311 10.4752 6.69047 10.4345L2.31547 6.05953C2.23338 5.97744 2.18726 5.8661 2.18726 5.75C2.18726 5.6339 2.23338 5.52256 2.31547 5.44047C2.39756 5.35837 2.5089 5.31226 2.625 5.31226C2.7411 5.31226 2.85244 5.35837 2.93453 5.44047L7 9.50648L11.0655 5.44047C11.1061 5.39982 11.1544 5.36758 11.2075 5.34558C11.2606 5.32358 11.3175 5.31226 11.375 5.31226C11.4325 5.31226 11.4894 5.32358 11.5425 5.34558C11.5956 5.36758 11.6439 5.39982 11.6845 5.44047C11.7252 5.48112 11.7574 5.52937 11.7794 5.58248C11.8014 5.63559 11.8127 5.69251 11.8127 5.75C11.8127 5.80748 11.8014 5.86441 11.7794 5.91752C11.7574 5.97063 11.7252 6.01888 11.6845 6.05953Z"
            fill="black" />
    </symbol>


    <!-- dine -->
    <symbol id="dine" viewBox="0 0 32 32">
        <path
            d="M11 6V2C11 1.73478 11.1054 1.48043 11.2929 1.29289C11.4804 1.10536 11.7348 1 12 1C12.2652 1 12.5196 1.10536 12.7071 1.29289C12.8946 1.48043 13 1.73478 13 2V6C13 6.26522 12.8946 6.51957 12.7071 6.70711C12.5196 6.89464 12.2652 7 12 7C11.7348 7 11.4804 6.89464 11.2929 6.70711C11.1054 6.51957 11 6.26522 11 6ZM16 7C16.2652 7 16.5196 6.89464 16.7071 6.70711C16.8946 6.51957 17 6.26522 17 6V2C17 1.73478 16.8946 1.48043 16.7071 1.29289C16.5196 1.10536 16.2652 1 16 1C15.7348 1 15.4804 1.10536 15.2929 1.29289C15.1054 1.48043 15 1.73478 15 2V6C15 6.26522 15.1054 6.51957 15.2929 6.70711C15.4804 6.89464 15.7348 7 16 7ZM20 7C20.2652 7 20.5196 6.89464 20.7071 6.70711C20.8946 6.51957 21 6.26522 21 6V2C21 1.73478 20.8946 1.48043 20.7071 1.29289C20.5196 1.10536 20.2652 1 20 1C19.7348 1 19.4804 1.10536 19.2929 1.29289C19.1054 1.48043 19 1.73478 19 2V6C19 6.26522 19.1054 6.51957 19.2929 6.70711C19.4804 6.89464 19.7348 7 20 7ZM31.6 12.8L28 15.5V23C28 24.0609 27.5786 25.0783 26.8284 25.8284C26.0783 26.5786 25.0609 27 24 27H8C6.93914 27 5.92172 26.5786 5.17158 25.8284C4.42143 25.0783 4 24.0609 4 23V15.5L0.400004 12.8C0.187831 12.6409 0.0475619 12.404 0.0100546 12.1414C-0.0274527 11.8789 0.0408742 11.6122 0.200004 11.4C0.359134 11.1878 0.596032 11.0476 0.858583 11.0101C1.12113 10.9725 1.38783 11.0409 1.6 11.2L4 13V11C4 10.4696 4.21072 9.96086 4.58579 9.58579C4.96086 9.21071 5.46957 9 6 9H26C26.5304 9 27.0391 9.21071 27.4142 9.58579C27.7893 9.96086 28 10.4696 28 11V13L30.4 11.2C30.6122 11.0409 30.8789 10.9725 31.1414 11.0101C31.404 11.0476 31.6409 11.1878 31.8 11.4C31.9591 11.6122 32.0275 11.8789 31.99 12.1414C31.9524 12.404 31.8122 12.6409 31.6 12.8ZM26 11H6V23C6 23.5304 6.21072 24.0391 6.58579 24.4142C6.96086 24.7893 7.46957 25 8 25H24C24.5304 25 25.0391 24.7893 25.4142 24.4142C25.7893 24.0391 26 23.5304 26 23V11Z"
            fill="#FF6C1F" />
    </symbol>

    <!-- fork -->
    <symbol id="fork" viewBox="0 0 32 32">
        <path
            d="M9.00001 11.0001V5.00011C9.00001 4.73489 9.10537 4.48054 9.2929 4.293C9.48044 4.10547 9.73479 4.00011 10 4.00011C10.2652 4.00011 10.5196 4.10547 10.7071 4.293C10.8947 4.48054 11 4.73489 11 5.00011V11.0001C11 11.2653 10.8947 11.5197 10.7071 11.7072C10.5196 11.8948 10.2652 12.0001 10 12.0001C9.73479 12.0001 9.48044 11.8948 9.2929 11.7072C9.10537 11.5197 9.00001 11.2653 9.00001 11.0001ZM27 5.00011V28.0001C27 28.2653 26.8947 28.5197 26.7071 28.7072C26.5196 28.8948 26.2652 29.0001 26 29.0001C25.7348 29.0001 25.4804 28.8948 25.2929 28.7072C25.1054 28.5197 25 28.2653 25 28.0001V22.0001H19C18.7348 22.0001 18.4804 21.8948 18.2929 21.7072C18.1054 21.5197 18 21.2653 18 21.0001C18.0464 18.6047 18.349 16.2211 18.9025 13.8901C20.125 8.82886 22.4425 5.43636 25.6063 4.08136C25.7583 4.01622 25.9242 3.98983 26.0889 4.00454C26.2537 4.01925 26.4123 4.07461 26.5504 4.16566C26.6885 4.25671 26.8019 4.3806 26.8803 4.52623C26.9588 4.67186 26.9999 4.83468 27 5.00011ZM25 6.73761C20.9788 9.80886 20.1913 17.2901 20.0375 20.0001H25V6.73761ZM14.9863 4.83636C14.9667 4.70505 14.9211 4.57896 14.8523 4.46544C14.7835 4.35191 14.6927 4.25323 14.5854 4.17515C14.478 4.09706 14.3562 4.04114 14.227 4.01064C14.0977 3.98014 13.9638 3.97567 13.8328 3.99749C13.7018 4.01932 13.5766 4.067 13.4642 4.13776C13.3519 4.20852 13.2548 4.30093 13.1785 4.40962C13.1023 4.51831 13.0485 4.64108 13.0202 4.7708C12.9919 4.90051 12.9897 5.03455 13.0138 5.16511L14 11.0789C14 12.1397 13.5786 13.1571 12.8284 13.9073C12.0783 14.6574 11.0609 15.0789 10 15.0789C8.93914 15.0789 7.92173 14.6574 7.17158 13.9073C6.42144 13.1571 6.00001 12.1397 6.00001 11.0789L6.98501 5.16511C7.00907 5.03455 7.00689 4.90051 6.9786 4.7708C6.95031 4.64108 6.89648 4.51831 6.82024 4.40962C6.744 4.30093 6.64688 4.20852 6.53455 4.13776C6.42222 4.067 6.29692 4.01932 6.16597 3.99749C6.03501 3.97567 5.90103 3.98014 5.77182 4.01064C5.64261 4.04114 5.52077 4.09706 5.4134 4.17515C5.30603 4.25323 5.21529 4.35191 5.14646 4.46544C5.07763 4.57896 5.03209 4.70505 5.01251 4.83636L4.01251 10.8364C4.00395 10.8905 3.99977 10.9453 4.00001 11.0001C4.00201 12.4174 4.50491 13.7883 5.41984 14.8707C6.33478 15.9531 7.60286 16.6772 9.00001 16.9151V28.0001C9.00001 28.2653 9.10537 28.5197 9.2929 28.7072C9.48044 28.8948 9.73479 29.0001 10 29.0001C10.2652 29.0001 10.5196 28.8948 10.7071 28.7072C10.8947 28.5197 11 28.2653 11 28.0001V16.9151C12.3972 16.6772 13.6652 15.9531 14.5802 14.8707C15.4951 13.7883 15.998 12.4174 16 11.0001C15.9998 10.9452 15.9952 10.8905 15.9863 10.8364L14.9863 4.83636Z"
            fill="#FF6C1F" />
    </symbol>

    <!-- moped -->
    <symbol id="moped" viewBox="0 0 32 32">
        <path
            d="M26 4.99989H20.9C20.6705 3.8696 20.0573 2.85341 19.1643 2.12351C18.2712 1.3936 17.1534 0.994873 16 0.994873C14.8466 0.994873 13.7288 1.3936 12.8357 2.12351C11.9427 2.85341 11.3295 3.8696 11.1 4.99989H6C5.73478 4.99989 5.48043 5.10524 5.29289 5.29278C5.10536 5.48032 5 5.73467 5 5.99989C5 6.2651 5.10536 6.51946 5.29289 6.70699C5.48043 6.89453 5.73478 6.99989 6 6.99989H11.1C11.3168 8.05466 11.8683 9.01127 12.6725 9.72739C11.2797 10.3658 10.0992 11.3902 9.27103 12.6792C8.44285 13.9683 8.00173 15.4678 8 16.9999V24.9999C8 25.5303 8.21071 26.039 8.58579 26.4141C8.96086 26.7892 9.46957 26.9999 10 26.9999H12C12 28.0608 12.4214 29.0782 13.1716 29.8283C13.9217 30.5785 14.9391 30.9999 16 30.9999C17.0609 30.9999 18.0783 30.5785 18.8284 29.8283C19.5786 29.0782 20 28.0608 20 26.9999H22C22.5304 26.9999 23.0391 26.7892 23.4142 26.4141C23.7893 26.039 24 25.5303 24 24.9999V16.9999C23.9983 15.4678 23.5572 13.9683 22.729 12.6792C21.9008 11.3902 20.7203 10.3658 19.3275 9.72739C20.1317 9.01127 20.6832 8.05466 20.9 6.99989H26C26.2652 6.99989 26.5196 6.89453 26.7071 6.70699C26.8946 6.51946 27 6.2651 27 5.99989C27 5.73467 26.8946 5.48032 26.7071 5.29278C26.5196 5.10524 26.2652 4.99989 26 4.99989ZM18 26.9999C18 27.5303 17.7893 28.039 17.4142 28.4141C17.0391 28.7892 16.5304 28.9999 16 28.9999C15.4696 28.9999 14.9609 28.7892 14.5858 28.4141C14.2107 28.039 14 27.5303 14 26.9999V20.9999C14 20.4695 14.2107 19.9607 14.5858 19.5857C14.9609 19.2106 15.4696 18.9999 16 18.9999C16.5304 18.9999 17.0391 19.2106 17.4142 19.5857C17.7893 19.9607 18 20.4695 18 20.9999V26.9999ZM22 16.9999V24.9999H20V20.9999C20 19.939 19.5786 18.9216 18.8284 18.1715C18.0783 17.4213 17.0609 16.9999 16 16.9999C14.9391 16.9999 13.9217 17.4213 13.1716 18.1715C12.4214 18.9216 12 19.939 12 20.9999V24.9999H10V16.9999C10 15.4086 10.6321 13.8825 11.7574 12.7572C12.8826 11.632 14.4087 10.9999 16 10.9999C17.5913 10.9999 19.1174 11.632 20.2426 12.7572C21.3679 13.8825 22 15.4086 22 16.9999ZM13 5.99989C13 5.40654 13.1759 4.82652 13.5056 4.33317C13.8352 3.83983 14.3038 3.45531 14.8519 3.22825C15.4001 3.00118 16.0033 2.94177 16.5853 3.05753C17.1672 3.17329 17.7018 3.45901 18.1213 3.87857C18.5409 4.29812 18.8266 4.83267 18.9424 5.41461C19.0581 5.99656 18.9987 6.59976 18.7716 7.14794C18.5446 7.69611 18.1601 8.16465 17.6667 8.49429C17.1734 8.82394 16.5933 8.99989 16 8.99989C15.2044 8.99989 14.4413 8.68382 13.8787 8.12121C13.3161 7.5586 13 6.79554 13 5.99989Z"
            fill="#FF6C1F" />
    </symbol>

    <!-- dots -->
    <symbol id="dots" viewBox="0 0 20 20">
        <path
            d="M5 8.75C5.69036 8.75 6.25 9.30964 6.25 10C6.25 10.6904 5.69036 11.25 5 11.25C4.30964 11.25 3.75 10.6904 3.75 10C3.75 9.30964 4.30964 8.75 5 8.75Z"
            fill="#858585" />
        <path
            d="M10 8.75C10.6904 8.75 11.25 9.30964 11.25 10C11.25 10.6904 10.6904 11.25 10 11.25C9.30964 11.25 8.75 10.6904 8.75 10C8.75 9.30964 9.30964 8.75 10 8.75Z"
            fill="#858585" />
        <path
            d="M16.25 10C16.25 9.30964 15.6904 8.75 15 8.75C14.3096 8.75 13.75 9.30964 13.75 10C13.75 10.6904 14.3096 11.25 15 11.25C15.6904 11.25 16.25 10.6904 16.25 10Z"
            fill="#858585" />
    </symbol>

    <!-- dashed circle -->
    <symbol id="dc" viewBox="0 0 30 30">
        <path
            d="M11.2805 4.34185C11.2494 4.22259 11.2422 4.09837 11.2592 3.97631C11.2762 3.85425 11.3172 3.73674 11.3796 3.63051C11.4421 3.52428 11.5249 3.43141 11.6233 3.35721C11.7217 3.28302 11.8338 3.22895 11.9531 3.19811C13.9517 2.68266 16.0483 2.68266 18.0469 3.19811C18.2682 3.25478 18.4613 3.39035 18.5897 3.57934C18.7182 3.76833 18.7732 3.99773 18.7444 4.22441C18.7156 4.45109 18.605 4.65946 18.4334 4.81035C18.2618 4.96124 18.041 5.04426 17.8125 5.04381C17.7334 5.0434 17.6547 5.03316 17.5781 5.01334C15.887 4.57718 14.1129 4.57718 12.4219 5.01334C12.1815 5.07535 11.9263 5.03948 11.7123 4.9136C11.4983 4.78772 11.343 4.5821 11.2805 4.34185ZM6.30351 6.46178C4.85817 7.93356 3.80984 9.74797 3.25663 11.7352C3.19028 11.9748 3.22183 12.231 3.34435 12.4474C3.46687 12.6637 3.67032 12.8226 3.90995 12.8889C4.14958 12.9553 4.40575 12.9237 4.62211 12.8012C4.83848 12.6787 4.99731 12.4752 5.06366 12.2356C5.53132 10.5535 6.41841 9.01759 7.64179 7.77193C7.8018 7.59194 7.88641 7.35726 7.87807 7.11656C7.86972 6.87587 7.76906 6.64762 7.59697 6.47913C7.42487 6.31065 7.19453 6.21486 6.95371 6.21163C6.71289 6.2084 6.48006 6.29797 6.30351 6.46178ZM5.06366 17.7598C5.03073 17.6412 4.97475 17.5302 4.89892 17.4332C4.82308 17.3361 4.72889 17.255 4.6217 17.1944C4.51451 17.1338 4.39644 17.0949 4.27422 17.0799C4.15199 17.0649 4.02802 17.0742 3.90937 17.1071C3.79071 17.14 3.67971 17.196 3.58269 17.2718C3.48568 17.3477 3.40455 17.4419 3.34394 17.5491C3.28332 17.6562 3.24442 17.7743 3.22944 17.8965C3.21446 18.0188 3.2237 18.1427 3.25663 18.2614C3.81017 20.2485 4.85845 22.0628 6.30351 23.5348C6.47787 23.7121 6.71552 23.8129 6.96419 23.815C7.21286 23.8171 7.45217 23.7203 7.62948 23.546C7.80679 23.3716 7.90758 23.1339 7.90967 22.8853C7.91176 22.6366 7.81497 22.3973 7.64061 22.22C6.41875 20.9747 5.5322 19.4403 5.06366 17.7598ZM17.5781 24.9868C15.8871 25.4234 14.1129 25.4234 12.4219 24.9868C12.302 24.9539 12.1767 24.9451 12.0535 24.961C11.9302 24.977 11.8113 25.0173 11.7037 25.0796C11.5961 25.1419 11.502 25.225 11.4268 25.324C11.3517 25.423 11.297 25.536 11.2659 25.6564C11.2348 25.7768 11.228 25.9021 11.2458 26.0252C11.2636 26.1482 11.3057 26.2665 11.3697 26.3731C11.4336 26.4797 11.5181 26.5725 11.6183 26.6462C11.7185 26.7198 11.8323 26.7728 11.9531 26.802C13.9517 27.3175 16.0483 27.3175 18.0469 26.802C18.2842 26.7368 18.4864 26.5809 18.6098 26.3679C18.7332 26.1549 18.7679 25.9019 18.7063 25.6636C18.6448 25.4252 18.492 25.2207 18.2809 25.094C18.0698 24.9674 17.8174 24.9289 17.5781 24.9868ZM26.0918 17.1094C25.9731 17.0765 25.849 17.0673 25.7267 17.0823C25.6044 17.0974 25.4863 17.1364 25.3791 17.1971C25.2719 17.2578 25.1777 17.3391 25.1019 17.4363C25.0262 17.5334 24.9703 17.6446 24.9375 17.7633C24.4701 19.4452 23.5829 20.9808 22.3594 22.2258C22.2731 22.3137 22.205 22.4177 22.1589 22.5319C22.1129 22.6461 22.0898 22.7682 22.0909 22.8914C22.092 23.0145 22.1174 23.1362 22.1656 23.2495C22.2138 23.3628 22.2838 23.4656 22.3717 23.5518C22.4595 23.6381 22.5635 23.7062 22.6777 23.7522C22.7919 23.7983 22.9141 23.8214 23.0372 23.8203C23.1603 23.8191 23.282 23.7938 23.3954 23.7456C23.5087 23.6974 23.6114 23.6274 23.6976 23.5395C25.1432 22.0679 26.1916 20.2534 26.7445 18.2661C26.7778 18.1473 26.7874 18.0231 26.7726 17.9006C26.7578 17.7781 26.7189 17.6597 26.6583 17.5522C26.5976 17.4448 26.5164 17.3504 26.4192 17.2744C26.322 17.1984 26.2107 17.1423 26.0918 17.1094ZM24.9363 12.2415C24.9693 12.3601 25.0252 12.4711 25.1011 12.5681C25.1769 12.6652 25.2711 12.7463 25.3783 12.8069C25.4855 12.8675 25.6035 12.9064 25.7258 12.9214C25.848 12.9364 25.972 12.9271 26.0906 12.8942C26.2093 12.8613 26.3203 12.8053 26.4173 12.7295C26.5143 12.6536 26.5954 12.5594 26.656 12.4522C26.7167 12.345 26.7556 12.227 26.7705 12.1048C26.7855 11.9825 26.7763 11.8586 26.7434 11.7399C26.1904 9.75256 25.142 7.9381 23.6965 6.46646C23.6101 6.37867 23.5074 6.30874 23.394 6.26066C23.2806 6.21259 23.1589 6.18731 23.0358 6.18628C22.9127 6.18525 22.7905 6.20847 22.6764 6.25464C22.5622 6.3008 22.4583 6.369 22.3705 6.45533C22.2827 6.54167 22.2128 6.64445 22.1647 6.75781C22.1166 6.87117 22.0913 6.99289 22.0903 7.11601C22.0893 7.23914 22.1125 7.36127 22.1587 7.47542C22.2048 7.58957 22.273 7.69351 22.3594 7.78131C23.5816 9.02578 24.4683 10.5599 24.9363 12.2403V12.2415Z"
            fill="#FF6C1F" />
    </symbol>

    <!-- check -->
    <symbol id="check" viewBox="0 0 30 30">
        <path
            d="M20.3508 11.5242C20.438 11.6113 20.5071 11.7147 20.5543 11.8285C20.6015 11.9423 20.6257 12.0643 20.6257 12.1875C20.6257 12.3107 20.6015 12.4327 20.5543 12.5465C20.5071 12.6603 20.438 12.7637 20.3508 12.8508L13.7883 19.4133C13.7012 19.5004 13.5978 19.5696 13.484 19.6168C13.3702 19.664 13.2482 19.6882 13.125 19.6882C13.0018 19.6882 12.8798 19.664 12.766 19.6168C12.6522 19.5696 12.5488 19.5004 12.4617 19.4133L9.64922 16.6008C9.47331 16.4249 9.37448 16.1863 9.37448 15.9375C9.37448 15.6887 9.47331 15.4501 9.64922 15.2742C9.82514 15.0983 10.0637 14.9995 10.3125 14.9995C10.5613 14.9995 10.7999 15.0983 10.9758 15.2742L13.125 17.4246L19.0242 11.5242C19.1113 11.4371 19.2147 11.3679 19.3285 11.3207C19.4423 11.2735 19.5643 11.2493 19.6875 11.2493C19.8107 11.2493 19.9327 11.2735 20.0465 11.3207C20.1603 11.3679 20.2637 11.4371 20.3508 11.5242ZM27.1875 15C27.1875 17.4105 26.4727 19.7668 25.1335 21.771C23.7944 23.7752 21.8909 25.3373 19.664 26.2598C17.437 27.1822 14.9865 27.4236 12.6223 26.9533C10.2582 26.4831 8.08659 25.3223 6.38214 23.6179C4.67769 21.9134 3.51694 19.7418 3.04668 17.3777C2.57643 15.0135 2.81778 12.563 3.74022 10.336C4.66267 8.10907 6.22477 6.20564 8.22899 4.86646C10.2332 3.52728 12.5895 2.8125 15 2.8125C18.2313 2.81591 21.3292 4.10104 23.6141 6.3859C25.899 8.67076 27.1841 11.7687 27.1875 15ZM25.3125 15C25.3125 12.9604 24.7077 10.9666 23.5745 9.27068C22.4414 7.5748 20.8308 6.25302 18.9464 5.47249C17.0621 4.69196 14.9886 4.48774 12.9881 4.88565C10.9877 5.28356 9.1502 6.26573 7.70797 7.70796C6.26574 9.15019 5.28357 10.9877 4.88566 12.9881C4.48775 14.9886 4.69197 17.0621 5.4725 18.9464C6.25303 20.8308 7.57481 22.4414 9.27069 23.5745C10.9666 24.7077 12.9604 25.3125 15 25.3125C17.7341 25.3094 20.3553 24.2219 22.2886 22.2886C24.2219 20.3553 25.3094 17.7341 25.3125 15Z"
            fill="#FF6C1F" />
    </symbol>

    <!-- receiptx -->
    <symbol id="receiptx" viewBox="0 0 30 30">
        <path
            d="M25.3125 4.6875H4.6875C4.19022 4.6875 3.71331 4.88504 3.36167 5.23667C3.01004 5.58831 2.8125 6.06522 2.8125 6.5625V24.375C2.81259 24.5348 2.85351 24.6919 2.93139 24.8314C3.00926 24.9709 3.12151 25.0883 3.25747 25.1722C3.39343 25.2561 3.54858 25.3039 3.70821 25.3111C3.86784 25.3182 4.02664 25.2844 4.16953 25.2129L7.5 23.5477L10.8305 25.2129C10.9607 25.2781 11.1044 25.312 11.25 25.312C11.3956 25.312 11.5393 25.2781 11.6695 25.2129L15 23.5477L18.3305 25.2129C18.4607 25.2781 18.6044 25.312 18.75 25.312C18.8956 25.312 19.0393 25.2781 19.1695 25.2129L22.5 23.5477L25.8305 25.2129C25.9734 25.2844 26.1322 25.3182 26.2918 25.3111C26.4514 25.3039 26.6066 25.2561 26.7425 25.1722C26.8785 25.0883 26.9907 24.9709 27.0686 24.8314C27.1465 24.6919 27.1874 24.5348 27.1875 24.375V6.5625C27.1875 6.06522 26.99 5.58831 26.6383 5.23667C26.2867 4.88504 25.8098 4.6875 25.3125 4.6875ZM25.3125 22.8586L22.9195 21.6609C22.7893 21.5958 22.6456 21.5618 22.5 21.5618C22.3544 21.5618 22.2107 21.5958 22.0805 21.6609L18.75 23.3273L15.4195 21.6609C15.2893 21.5958 15.1456 21.5618 15 21.5618C14.8544 21.5618 14.7107 21.5958 14.5805 21.6609L11.25 23.3273L7.91953 21.6609C7.78928 21.5958 7.64564 21.5618 7.5 21.5618C7.35436 21.5618 7.21072 21.5958 7.08047 21.6609L4.6875 22.8586V6.5625H25.3125V22.8586ZM11.5242 16.2117L13.6746 14.0625L11.5242 11.9133C11.3483 11.7374 11.2495 11.4988 11.2495 11.25C11.2495 11.0012 11.3483 10.7626 11.5242 10.5867C11.7001 10.4108 11.9387 10.312 12.1875 10.312C12.4363 10.312 12.6749 10.4108 12.8508 10.5867L15 12.7371L17.1492 10.5867C17.2363 10.4996 17.3397 10.4305 17.4535 10.3834C17.5673 10.3362 17.6893 10.312 17.8125 10.312C17.9357 10.312 18.0577 10.3362 18.1715 10.3834C18.2853 10.4305 18.3887 10.4996 18.4758 10.5867C18.5629 10.6738 18.632 10.7772 18.6791 10.891C18.7263 11.0048 18.7505 11.1268 18.7505 11.25C18.7505 11.3732 18.7263 11.4952 18.6791 11.609C18.632 11.7228 18.5629 11.8262 18.4758 11.9133L16.3254 14.0625L18.4758 16.2117C18.5629 16.2988 18.632 16.4022 18.6791 16.516C18.7263 16.6298 18.7505 16.7518 18.7505 16.875C18.7505 16.9982 18.7263 17.1202 18.6791 17.234C18.632 17.3478 18.5629 17.4512 18.4758 17.5383C18.3887 17.6254 18.2853 17.6945 18.1715 17.7416C18.0577 17.7888 17.9357 17.813 17.8125 17.813C17.6893 17.813 17.5673 17.7888 17.4535 17.7416C17.3397 17.6945 17.2363 17.6254 17.1492 17.5383L15 15.3879L12.8508 17.5383C12.7637 17.6254 12.6603 17.6945 12.5465 17.7416C12.4327 17.7888 12.3107 17.813 12.1875 17.813C12.0643 17.813 11.9423 17.7888 11.8285 17.7416C11.7147 17.6945 11.6113 17.6254 11.5242 17.5383C11.4371 17.4512 11.368 17.3478 11.3209 17.234C11.2737 17.1202 11.2495 16.9982 11.2495 16.875C11.2495 16.7518 11.2737 16.6298 11.3209 16.516C11.368 16.4022 11.4371 16.2988 11.5242 16.2117Z"
            fill="#FF6C1F" />
    </symbol>

    <!-- emojis -->
    <symbol id="emoji" viewBox="0 0 32 32">
        <path
            d="M21.865 19.4996C20.5788 21.7234 18.4412 22.9996 16 22.9996C13.5588 22.9996 11.4212 21.7246 10.1337 19.4996C10.0681 19.3858 10.0255 19.2603 10.0083 19.13C9.99122 18.9998 9.99991 18.8675 10.0339 18.7406C10.0679 18.6138 10.1266 18.4948 10.2066 18.3906C10.2865 18.2864 10.3862 18.199 10.5 18.1334C10.6138 18.0677 10.7393 18.0251 10.8696 18.008C10.9998 17.9908 11.1321 17.9995 11.259 18.0335C11.3858 18.0675 11.5048 18.1262 11.609 18.2062C11.7132 18.2861 11.8006 18.3859 11.8663 18.4996C12.7987 20.1134 14.2662 20.9996 16 20.9996C17.7338 20.9996 19.2013 20.1121 20.135 18.4996C20.1975 18.3801 20.2836 18.2745 20.388 18.1891C20.4923 18.1037 20.6129 18.0403 20.7425 18.0027C20.872 17.9652 21.0078 17.9542 21.1417 17.9704C21.2756 17.9867 21.4048 18.0299 21.5215 18.0974C21.6383 18.1649 21.7402 18.2553 21.8211 18.3632C21.902 18.4711 21.9603 18.5942 21.9924 18.7252C22.0245 18.8562 22.0297 18.9924 22.0078 19.1254C21.9859 19.2585 21.9374 19.3858 21.865 19.4996ZM29 15.9996C29.0006 17.2942 28.8085 18.5816 28.43 19.8196C28.3818 19.9759 28.2959 20.118 28.18 20.2334L20.2337 28.1796C20.119 28.2958 19.9773 28.3817 19.8213 28.4296C17.2058 29.2339 14.4032 29.1925 11.8126 28.3111C9.2221 27.4297 6.97575 25.7533 5.39353 23.5207C3.81131 21.2882 2.97392 18.6133 3.00062 15.8771C3.02732 13.1408 3.91675 10.4828 5.54224 8.28153C7.16772 6.08027 9.44636 4.44807 12.0536 3.61739C14.6608 2.78671 17.4637 2.79992 20.063 3.65514C22.6623 4.51036 24.9254 6.16397 26.5301 8.38045C28.1348 10.5969 28.9991 13.2632 29 15.9996ZM27 15.9996C26.9971 13.6984 26.2717 11.4561 24.9261 9.58928C23.5805 7.72244 21.6827 6.32527 19.5004 5.59494C17.3181 4.86461 14.9616 4.83799 12.7634 5.51884C10.5651 6.19968 8.63622 7.55362 7.24879 9.38958C5.86135 11.2255 5.08547 13.4508 5.03063 15.7514C4.97579 18.052 5.64475 20.3118 6.94312 22.2117C8.2415 24.1117 10.1037 25.556 12.267 26.3409C14.4303 27.1257 16.7854 27.2114 19 26.5859L26.5863 18.9996C26.8617 18.0234 27.001 17.0139 27 15.9996ZM11.5 14.9996C11.7967 14.9996 12.0867 14.9116 12.3334 14.7468C12.58 14.582 12.7723 14.3477 12.8858 14.0736C12.9994 13.7995 13.0291 13.4979 12.9712 13.207C12.9133 12.916 12.7704 12.6487 12.5607 12.4389C12.3509 12.2292 12.0836 12.0863 11.7926 12.0284C11.5017 11.9706 11.2001 12.0003 10.926 12.1138C10.6519 12.2273 10.4176 12.4196 10.2528 12.6663C10.088 12.9129 10 13.2029 10 13.4996C10 13.8974 10.158 14.279 10.4393 14.5603C10.7206 14.8416 11.1022 14.9996 11.5 14.9996ZM20.5 11.9996C20.2033 11.9996 19.9133 12.0876 19.6666 12.2524C19.42 12.4172 19.2277 12.6515 19.1142 12.9256C19.0007 13.1997 18.9709 13.5013 19.0288 13.7922C19.0867 14.0832 19.2296 14.3505 19.4393 14.5603C19.6491 14.77 19.9164 14.9129 20.2074 14.9708C20.4983 15.0287 20.7999 14.999 21.074 14.8854C21.3481 14.7719 21.5824 14.5796 21.7472 14.333C21.912 14.0863 22 13.7963 22 13.4996C22 13.1018 21.842 12.7203 21.5607 12.4389C21.2794 12.1576 20.8978 11.9996 20.5 11.9996Z"
            fill="#858585" />
    </symbol>

    <!-- attach -->
    <symbol id="attach" viewBox="0 0 32 32">
        <path
            d="M26.2075 15.2929C26.3005 15.3858 26.3743 15.496 26.4246 15.6174C26.4749 15.7388 26.5008 15.869 26.5008 16.0004C26.5008 16.1318 26.4749 16.2619 26.4246 16.3833C26.3743 16.5047 26.3005 16.615 26.2075 16.7079L15.9513 26.9579C14.6383 28.2707 12.8576 29.0082 11.0008 29.0081C9.14412 29.0079 7.36348 28.2703 6.05066 26.9573C4.73784 25.6443 4.00037 23.8636 4.00049 22.0068C4.00061 20.1501 4.7383 18.3695 6.05129 17.0566L18.4588 4.46664C19.3962 3.52827 20.6679 3.0007 21.9943 3C23.3206 2.9993 24.5929 3.52551 25.5313 4.46289C26.4697 5.40026 26.9972 6.67201 26.9979 7.99836C26.9986 9.32471 26.4724 10.597 25.535 11.5354L13.125 24.1254C12.5615 24.689 11.7971 25.0056 11 25.0056C10.203 25.0056 9.43862 24.689 8.87504 24.1254C8.31145 23.5618 7.99483 22.7974 7.99483 22.0004C7.99483 21.2034 8.31145 20.439 8.87504 19.8754L19.2875 9.29789C19.3787 9.20058 19.4885 9.12251 19.6103 9.06826C19.7322 9.01401 19.8636 8.98468 19.997 8.982C20.1303 8.97931 20.2629 9.00333 20.3868 9.05263C20.5107 9.10194 20.6235 9.17553 20.7186 9.26908C20.8136 9.36264 20.889 9.47426 20.9403 9.59738C20.9915 9.7205 21.0177 9.85264 21.0171 9.98601C21.0165 10.1194 20.9893 10.2513 20.937 10.374C20.8847 10.4967 20.8084 10.6076 20.7125 10.7004L10.2988 21.2891C10.2055 21.3816 10.1314 21.4916 10.0807 21.6127C10.03 21.7339 10.0036 21.8638 10.003 21.9952C10.0025 22.1265 10.0279 22.2567 10.0777 22.3782C10.1274 22.4997 10.2007 22.6103 10.2932 22.7035C10.3857 22.7968 10.4956 22.8709 10.6168 22.9216C10.7379 22.9723 10.8678 22.9987 10.9992 22.9993C11.1305 22.9998 11.2607 22.9744 11.3822 22.9246C11.5038 22.8749 11.6143 22.8016 11.7075 22.7091L24.1163 10.1254C24.6799 9.56296 24.997 8.79969 24.9978 8.00348C24.9986 7.20727 24.6831 6.44335 24.1207 5.87976C23.5582 5.31618 22.795 4.9991 21.9988 4.99828C21.2025 4.99746 20.4386 5.31296 19.875 5.87539L7.47004 18.4604C7.00532 18.9244 6.63654 19.4753 6.38476 20.0818C6.13297 20.6883 6.00311 21.3385 6.00259 21.9952C6.00207 22.6518 6.1309 23.3022 6.38171 23.9091C6.63253 24.516 7.00044 25.0675 7.46441 25.5323C7.92839 25.997 8.47935 26.3658 9.08585 26.6175C9.69235 26.8693 10.3425 26.9992 10.9992 26.9997C11.6559 27.0002 12.3062 26.8714 12.9131 26.6206C13.52 26.3698 14.0716 26.0019 14.5363 25.5379L24.7938 15.2879C24.982 15.1012 25.2366 14.9968 25.5017 14.9977C25.7668 14.9987 26.0207 15.1048 26.2075 15.2929Z"
            fill="#858585" />
    </symbol>

    <!-- send -->
    <symbol id="send-button" viewBox="0 0 20 20">
        <path
            d="M17.4898 8.9061L4.36484 1.4147C4.1436 1.29059 3.88983 1.23673 3.63726 1.26028C3.38468 1.28383 3.14525 1.38366 2.95076 1.54653C2.75628 1.70939 2.61594 1.92757 2.54841 2.17209C2.48087 2.4166 2.48933 2.67588 2.57265 2.91548L4.99452 9.98345C4.99421 9.98604 4.99421 9.98866 4.99452 9.99126C4.99409 9.99384 4.99409 9.99648 4.99452 9.99907L2.57265 17.0827C2.50592 17.2711 2.48538 17.4729 2.51274 17.6709C2.5401 17.869 2.61458 18.0576 2.72991 18.2209C2.84525 18.3842 2.99808 18.5175 3.17557 18.6095C3.35307 18.7016 3.55005 18.7497 3.74999 18.7499C3.96692 18.7493 4.18004 18.6928 4.36874 18.5858L17.4867 11.0819C17.6802 10.9735 17.8414 10.8156 17.9537 10.6243C18.066 10.4331 18.1254 10.2154 18.1258 9.99357C18.1262 9.77178 18.0676 9.55388 17.956 9.36222C17.8443 9.17057 17.6837 9.01206 17.4906 8.90298L17.4898 8.9061ZM3.74999 17.4999V17.4928L6.10468 10.6249H10.625C10.7908 10.6249 10.9497 10.559 11.0669 10.4418C11.1841 10.3246 11.25 10.1656 11.25 9.99985C11.25 9.83409 11.1841 9.67512 11.0669 9.55791C10.9497 9.4407 10.7908 9.37485 10.625 9.37485H6.11093L3.75468 2.50923L3.74999 2.49985L16.875 9.98657L3.74999 17.4999Z"
            fill="white" />
    </symbol>

    <!-- phone -->
    <symbol id="phone" viewBox="0 0 32 32">
        <path
            d="M27.7963 19.8072L21.9075 17.1685L21.8913 17.161C21.5856 17.0302 21.2521 16.9778 20.921 17.0083C20.5899 17.0389 20.2716 17.1515 19.995 17.336C19.9624 17.3575 19.9311 17.3809 19.9013 17.406L16.8588 19.9997C14.9313 19.0635 12.9413 17.0885 12.005 15.186L14.6025 12.0972C14.6275 12.066 14.6513 12.0347 14.6738 12.001C14.8543 11.7251 14.9638 11.4089 14.9926 11.0805C15.0214 10.752 14.9686 10.4216 14.8388 10.1185V10.1035L12.1925 4.20475C12.0209 3.80883 11.7259 3.47902 11.3515 3.26455C10.9771 3.05007 10.5433 2.96245 10.115 3.01475C8.42122 3.23763 6.86649 4.06946 5.74118 5.35487C4.61587 6.64028 3.99695 8.29136 4.00001 9.99975C4.00001 19.9247 12.075 27.9997 22 27.9997C23.7084 28.0028 25.3595 27.3839 26.6449 26.2586C27.9303 25.1333 28.7621 23.5785 28.985 21.8847C29.0374 21.4566 28.95 21.0229 28.7357 20.6485C28.5215 20.2741 28.1919 19.979 27.7963 19.8072ZM22 25.9997C17.758 25.9951 13.691 24.3079 10.6914 21.3083C7.69184 18.3088 6.00464 14.2418 6.00001 9.99975C5.99531 8.77911 6.43507 7.59849 7.23718 6.67838C8.03929 5.75827 9.14889 5.16158 10.3588 4.99975C10.3583 5.00473 10.3583 5.00976 10.3588 5.01475L12.9838 10.8897L10.4 13.9822C10.3738 14.0124 10.35 14.0446 10.3288 14.0785C10.1407 14.3671 10.0303 14.6995 10.0084 15.0433C9.9865 15.3872 10.0538 15.7308 10.2038 16.041C11.3363 18.3572 13.67 20.6735 16.0113 21.8047C16.3237 21.9533 16.6694 22.0183 17.0144 21.9933C17.3595 21.9683 17.6922 21.8543 17.98 21.6622C18.0121 21.6406 18.043 21.6173 18.0725 21.5922L21.1113 18.9997L26.9863 21.631C26.9863 21.631 26.9963 21.631 27 21.631C26.8402 22.8426 26.2444 23.9544 25.3241 24.7585C24.4038 25.5626 23.2221 26.0039 22 25.9997Z"
            fill="#1C1C1C" />
    </symbol>

    <!-- video -->
    <symbol id="video" viewBox="0 0 32 32">
        <path
            d="M31.4713 9.125C31.3118 9.03953 31.1321 8.99892 30.9514 9.0075C30.7707 9.01609 30.5956 9.07354 30.445 9.17375L26 12.1313V9C26 8.46957 25.7893 7.96086 25.4142 7.58579C25.0391 7.21071 24.5304 7 24 7H4C3.46957 7 2.96086 7.21071 2.58579 7.58579C2.21071 7.96086 2 8.46957 2 9V23C2 23.5304 2.21071 24.0391 2.58579 24.4142C2.96086 24.7893 3.46957 25 4 25H24C24.5304 25 25.0391 24.7893 25.4142 24.4142C25.7893 24.0391 26 23.5304 26 23V19.875L30.445 22.8388C30.6101 22.946 30.8032 23.002 31 23C31.2652 23 31.5196 22.8946 31.7071 22.7071C31.8946 22.5196 32 22.2652 32 22V10C31.9987 9.82007 31.949 9.64382 31.8559 9.48982C31.7628 9.33582 31.63 9.20979 31.4713 9.125ZM24 23H4V9H24V23ZM30 20.1313L26 17.465V14.535L30 11.875V20.1313Z"
            fill="#1C1C1C" />
    </symbol>

    <!-- sidebar menu -->
    <symbol id="sidebar-menu" viewBox="0 0 32 32">
        <path
            d="M5 5H27C27.5304 5 28.0391 5.21071 28.4142 5.58579C28.7893 5.96086 29 6.46957 29 7V25C29 25.5304 28.7893 26.0391 28.4142 26.4142C28.0391 26.7893 27.5304 27 27 27H5C4.46957 27 3.96086 26.7893 3.58579 26.4142C3.21071 26.0391 3 25.5304 3 25V7C3 6.46957 3.21071 5.96086 3.58579 5.58579C3.96086 5.21071 4.46957 5 5 5ZM27 7H22V25H27V7ZM5 25H20V7H5V25Z"
            fill="#1C1C1C" />
    </symbol>

    <!-- faders -->
    <symbol id="fader" viewBox="0 0 32 32">
        <path
            d="M4 10C4 9.73478 4.10536 9.48043 4.29289 9.29289C4.48043 9.10536 4.73478 9 5 9H9C9.26522 9 9.51957 9.10536 9.70711 9.29289C9.89464 9.48043 10 9.73478 10 10C10 10.2652 9.89464 10.5196 9.70711 10.7071C9.51957 10.8946 9.26522 11 9 11H5C4.73478 11 4.48043 10.8946 4.29289 10.7071C4.10536 10.5196 4 10.2652 4 10ZM27 21H22V19C22 18.7348 21.8946 18.4804 21.7071 18.2929C21.5196 18.1054 21.2652 18 21 18C20.7348 18 20.4804 18.1054 20.2929 18.2929C20.1054 18.4804 20 18.7348 20 19V25C20 25.2652 20.1054 25.5196 20.2929 25.7071C20.4804 25.8946 20.7348 26 21 26C21.2652 26 21.5196 25.8946 21.7071 25.7071C21.8946 25.5196 22 25.2652 22 25V23H27C27.2652 23 27.5196 22.8946 27.7071 22.7071C27.8946 22.5196 28 22.2652 28 22C28 21.7348 27.8946 21.4804 27.7071 21.2929C27.5196 21.1054 27.2652 21 27 21ZM17 21H5C4.73478 21 4.48043 21.1054 4.29289 21.2929C4.10536 21.4804 4 21.7348 4 22C4 22.2652 4.10536 22.5196 4.29289 22.7071C4.48043 22.8946 4.73478 23 5 23H17C17.2652 23 17.5196 22.8946 17.7071 22.7071C17.8946 22.5196 18 22.2652 18 22C18 21.7348 17.8946 21.4804 17.7071 21.2929C17.5196 21.1054 17.2652 21 17 21ZM13 14C13.2652 14 13.5196 13.8946 13.7071 13.7071C13.8946 13.5196 14 13.2652 14 13V11H27C27.2652 11 27.5196 10.8946 27.7071 10.7071C27.8946 10.5196 28 10.2652 28 10C28 9.73478 27.8946 9.48043 27.7071 9.29289C27.5196 9.10536 27.2652 9 27 9H14V7C14 6.73478 13.8946 6.48043 13.7071 6.29289C13.5196 6.10536 13.2652 6 13 6C12.7348 6 12.4804 6.10536 12.2929 6.29289C12.1054 6.48043 12 6.73478 12 7V13C12 13.2652 12.1054 13.5196 12.2929 13.7071C12.4804 13.8946 12.7348 14 13 14Z"
            fill="#1C1C1C" />
    </symbol>

    <!-- add -->
    <symbol id="add" viewBox="0 0 32 32">
        <path
            d="M28 16C28 16.2652 27.8946 16.5196 27.7071 16.7071C27.5196 16.8946 27.2652 17 27 17H17V27C17 27.2652 16.8946 27.5196 16.7071 27.7071C16.5196 27.8946 16.2652 28 16 28C15.7348 28 15.4804 27.8946 15.2929 27.7071C15.1054 27.5196 15 27.2652 15 27V17H5C4.73478 17 4.48043 16.8946 4.29289 16.7071C4.10536 16.5196 4 16.2652 4 16C4 15.7348 4.10536 15.4804 4.29289 15.2929C4.48043 15.1054 4.73478 15 5 15H15V5C15 4.73478 15.1054 4.48043 15.2929 4.29289C15.4804 4.10536 15.7348 4 16 4C16.2652 4 16.5196 4.10536 16.7071 4.29289C16.8946 4.48043 17 4.73478 17 5V15H27C27.2652 15 27.5196 15.1054 27.7071 15.2929C27.8946 15.4804 28 15.7348 28 16Z"
            fill="white" />
    </symbol>

    <!-- double tick -->
    <symbol id="dt" viewBox="0 0 13 13">
        <path
            d="M7.59744 4.3528L3.04744 8.82155C2.97146 8.8963 2.86914 8.93818 2.76256 8.93818C2.65598 8.93818 2.55366 8.8963 2.47768 8.82155L0.527678 6.90659C0.489633 6.86918 0.459329 6.82464 0.438497 6.77552C0.417665 6.7264 0.406712 6.67365 0.406264 6.6203C0.405816 6.56694 0.415882 6.51402 0.435886 6.46455C0.455891 6.41509 0.485442 6.37005 0.522854 6.332C0.560265 6.29396 0.604804 6.26365 0.653926 6.24282C0.703049 6.22199 0.755794 6.21104 0.809149 6.21059C0.862505 6.21014 0.915426 6.22021 0.964892 6.24021C1.01436 6.26022 1.0594 6.28977 1.09744 6.32718L2.76256 7.96233L7.02818 3.77288C7.10509 3.69733 7.20885 3.65541 7.31666 3.65637C7.37004 3.65684 7.4228 3.66782 7.47194 3.68868C7.52107 3.70954 7.56562 3.73988 7.60303 3.77796C7.64044 3.81604 7.66999 3.86111 7.68998 3.91061C7.70997 3.9601 7.72002 4.01305 7.71954 4.06643C7.71907 4.11981 7.70809 4.17258 7.68723 4.22171C7.66637 4.27085 7.63603 4.31539 7.59795 4.3528H7.59744ZM12.4775 3.77796C12.4401 3.73985 12.3956 3.70949 12.3464 3.68861C12.2973 3.66773 12.2445 3.65674 12.1912 3.65627C12.1378 3.65579 12.0848 3.66585 12.0353 3.68586C11.9858 3.70587 11.9407 3.73544 11.9027 3.77288L7.63705 7.96233L6.68084 7.02288C6.60394 6.94739 6.5002 6.90555 6.39244 6.90655C6.28469 6.90755 6.18174 6.95131 6.10625 7.02821C6.03076 7.10512 5.98892 7.20886 5.98992 7.31661C5.99092 7.42437 6.03468 7.52732 6.11158 7.6028L7.35217 8.82155C7.42815 8.8963 7.53047 8.93818 7.63705 8.93818C7.74364 8.93818 7.84595 8.8963 7.92194 8.82155L12.4719 4.3528C12.5101 4.31544 12.5405 4.27093 12.5614 4.22181C12.5823 4.17269 12.5934 4.11993 12.5939 4.06654C12.5944 4.01315 12.5844 3.96018 12.5644 3.91067C12.5445 3.86115 12.5149 3.81605 12.4775 3.77796Z"
            fill="currentColor" />
    </symbol>

    <!-- single tick -->
    <symbol id="st" viewBox="0 0 13 13">
        <path
            d="M7.59744 4.3528L3.04744 8.82155C2.97146 8.8963 2.86914 8.93818 2.76256 8.93818C2.65598 8.93818 2.55366 8.8963 2.47768 8.82155L0.527678 6.90659C0.489633 6.86918 0.459329 6.82464 0.438497 6.77552C0.417665 6.7264 0.406712 6.67365 0.406264 6.6203C0.405816 6.56694 0.415882 6.51402 0.435886 6.46455C0.455891 6.41509 0.485442 6.37005 0.522854 6.332C0.560265 6.29396 0.604804 6.26365 0.653926 6.24282C0.703049 6.22199 0.755794 6.21104 0.809149 6.21059C0.862505 6.21014 0.915426 6.22021 0.964892 6.24021C1.01436 6.26022 1.0594 6.28977 1.09744 6.32718L2.76256 7.96233L7.02818 3.77288C7.10509 3.69733 7.20885 3.65541 7.31666 3.65637C7.37004 3.65684 7.4228 3.66782 7.47194 3.68868C7.52107 3.70954 7.56562 3.73988 7.60303 3.77796C7.64044 3.81604 7.66999 3.86111 7.68998 3.91061C7.70997 3.9601 7.72002 4.01305 7.71954 4.06643C7.71907 4.11981 7.70809 4.17258 7.68723 4.22171C7.66637 4.27085 7.63603 4.31539 7.59795 4.3528H7.59744Z"
            fill="currentColor" />
    </symbol>

    <symbol id="bar" viewBox="0 0 16 16">
        <path
            d="M14 12.5H13.5V2.5C13.5 2.36739 13.4473 2.24021 13.3536 2.14645C13.2598 2.05268 13.1326 2 13 2H9.5C9.36739 2 9.24021 2.05268 9.14645 2.14645C9.05268 2.24021 9 2.36739 9 2.5V5H6C5.86739 5 5.74021 5.05268 5.64645 5.14645C5.55268 5.24021 5.5 5.36739 5.5 5.5V8H3C2.86739 8 2.74021 8.05268 2.64645 8.14645C2.55268 8.24021 2.5 8.36739 2.5 8.5V12.5H2C1.86739 12.5 1.74021 12.5527 1.64645 12.6464C1.55268 12.7402 1.5 12.8674 1.5 13C1.5 13.1326 1.55268 13.2598 1.64645 13.3536C1.74021 13.4473 1.86739 13.5 2 13.5H14C14.1326 13.5 14.2598 13.4473 14.3536 13.3536C14.4473 13.2598 14.5 13.1326 14.5 13C14.5 12.8674 14.4473 12.7402 14.3536 12.6464C14.2598 12.5527 14.1326 12.5 14 12.5ZM10 3H12.5V12.5H10V3ZM6.5 6H9V12.5H6.5V6ZM3.5 9H5.5V12.5H3.5V9Z"
            fill="#272932" />
    </symbol>
    <symbol id="health" viewBox="0 0 16 16">
        <path
            d="M4.5 9H2C1.86739 9 1.74021 8.94732 1.64645 8.85355C1.55268 8.75979 1.5 8.63261 1.5 8.5C1.5 8.36739 1.55268 8.24021 1.64645 8.14645C1.74021 8.05268 1.86739 8 2 8H4.2325L5.08375 6.7225C5.12939 6.65392 5.19127 6.59767 5.26389 6.55877C5.33651 6.51987 5.41762 6.49951 5.5 6.49951C5.58238 6.49951 5.66349 6.51987 5.73611 6.55877C5.80873 6.59767 5.87061 6.65392 5.91625 6.7225L7.5 9.0975L8.08375 8.2225C8.12945 8.15401 8.19135 8.09786 8.26397 8.05904C8.33658 8.02023 8.41766 7.99995 8.5 8H10C10.1326 8 10.2598 8.05268 10.3536 8.14645C10.4473 8.24021 10.5 8.36739 10.5 8.5C10.5 8.63261 10.4473 8.75979 10.3536 8.85355C10.2598 8.94732 10.1326 9 10 9H8.7675L7.91625 10.2775C7.87061 10.3461 7.80873 10.4023 7.73611 10.4412C7.66349 10.4801 7.58238 10.5005 7.5 10.5005C7.41762 10.5005 7.33651 10.4801 7.26389 10.4412C7.19127 10.4023 7.12939 10.3461 7.08375 10.2775L5.5 7.90125L4.91625 8.77625C4.8707 8.84497 4.80885 8.90137 4.73623 8.94041C4.6636 8.97944 4.58245 8.99992 4.5 9ZM11.125 2.5C9.83438 2.5 8.70438 3.055 8 3.99312C7.29562 3.055 6.16563 2.5 4.875 2.5C3.84764 2.50116 2.86269 2.90979 2.13624 3.63624C1.40979 4.36269 1.00116 5.34764 1 6.375C1 6.42187 1 6.46875 1 6.51562C1.00414 6.64823 1.0608 6.77376 1.1575 6.8646C1.25419 6.95544 1.38302 7.00414 1.51562 7C1.64823 6.99586 1.77376 6.9392 1.8646 6.8425C1.95544 6.74581 2.00414 6.61698 2 6.48437C2 6.44812 2 6.41125 2 6.375C2.00099 5.61281 2.30421 4.88212 2.84316 4.34316C3.38212 3.80421 4.11281 3.50099 4.875 3.5C6.09062 3.5 7.11125 4.1475 7.5375 5.1875C7.57517 5.27921 7.63925 5.35764 7.7216 5.41284C7.80396 5.46804 7.90086 5.49752 8 5.49752C8.09914 5.49752 8.19604 5.46804 8.2784 5.41284C8.36075 5.35764 8.42483 5.27921 8.4625 5.1875C8.88875 4.14562 9.90938 3.5 11.125 3.5C11.8872 3.50099 12.6179 3.80421 13.1568 4.34316C13.6958 4.88212 13.999 5.61281 14 6.375C14 9.72562 9.14 12.7594 8 13.425C7.32312 13.0306 5.33562 11.8 3.8325 10.1619C3.7881 10.1134 3.73459 10.0742 3.67504 10.0465C3.61548 10.0188 3.55104 10.003 3.48541 10.0002C3.41977 9.99732 3.35421 10.0074 3.29248 10.0299C3.23075 10.0524 3.17405 10.0868 3.12562 10.1312C3.0772 10.1757 3.038 10.2292 3.01025 10.2887C2.9825 10.3483 2.96676 10.4127 2.96391 10.4783C2.96107 10.544 2.97118 10.6095 2.99367 10.6713C3.01617 10.733 3.0506 10.7897 3.095 10.8381C5.04313 12.9631 7.65312 14.3806 7.76312 14.44C7.83594 14.4792 7.91732 14.4997 8 14.4997C8.08268 14.4997 8.16406 14.4792 8.23687 14.44C8.51312 14.2912 15 10.75 15 6.375C14.9988 5.34764 14.5902 4.36269 13.8638 3.63624C13.1373 2.90979 12.1524 2.50116 11.125 2.5Z"
            fill="#272932" />
    </symbol>
    <symbol id="cook" viewBox="0 0 16 16">
        <g clip-path="url(#clip0_98_1240)">
            <path
                d="M5.5 3V1C5.5 0.867392 5.55268 0.740215 5.64645 0.646447C5.74022 0.552678 5.86739 0.5 6 0.5C6.13261 0.5 6.25979 0.552678 6.35356 0.646447C6.44732 0.740215 6.5 0.867392 6.5 1V3C6.5 3.13261 6.44732 3.25979 6.35356 3.35355C6.25979 3.44732 6.13261 3.5 6 3.5C5.86739 3.5 5.74022 3.44732 5.64645 3.35355C5.55268 3.25979 5.5 3.13261 5.5 3ZM8 3.5C8.13261 3.5 8.25979 3.44732 8.35356 3.35355C8.44732 3.25979 8.5 3.13261 8.5 3V1C8.5 0.867392 8.44732 0.740215 8.35356 0.646447C8.25979 0.552678 8.13261 0.5 8 0.5C7.86739 0.5 7.74022 0.552678 7.64645 0.646447C7.55268 0.740215 7.5 0.867392 7.5 1V3C7.5 3.13261 7.55268 3.25979 7.64645 3.35355C7.74022 3.44732 7.86739 3.5 8 3.5ZM10 3.5C10.1326 3.5 10.2598 3.44732 10.3536 3.35355C10.4473 3.25979 10.5 3.13261 10.5 3V1C10.5 0.867392 10.4473 0.740215 10.3536 0.646447C10.2598 0.552678 10.1326 0.5 10 0.5C9.86739 0.5 9.74022 0.552678 9.64645 0.646447C9.55268 0.740215 9.5 0.867392 9.5 1V3C9.5 3.13261 9.55268 3.25979 9.64645 3.35355C9.74022 3.44732 9.86739 3.5 10 3.5ZM15.8 6.4L14 7.75V11.5C14 12.0304 13.7893 12.5391 13.4142 12.9142C13.0391 13.2893 12.5304 13.5 12 13.5H4C3.46957 13.5 2.96086 13.2893 2.58579 12.9142C2.21072 12.5391 2 12.0304 2 11.5V7.75L0.200002 6.4C0.0939154 6.32044 0.0237809 6.20199 0.0050273 6.07071C-0.0137263 5.93944 0.0204371 5.80609 0.100002 5.7C0.179567 5.59391 0.298016 5.52378 0.429291 5.50503C0.560567 5.48627 0.693915 5.52043 0.800002 5.6L2 6.5V5C2 4.86739 2.05268 4.74021 2.14645 4.64645C2.24022 4.55268 2.36739 4.5 2.5 4.5H13.5C13.6326 4.5 13.7598 4.55268 13.8536 4.64645C13.9473 4.74021 14 4.86739 14 5V6.5L15.2 5.6C15.3061 5.52043 15.4394 5.48627 15.5707 5.50503C15.702 5.52378 15.8204 5.59391 15.9 5.7C15.9796 5.80609 16.0137 5.93944 15.995 6.07071C15.9762 6.20199 15.9061 6.32044 15.8 6.4ZM13 5.5H3V11.5C3 11.7652 3.10536 12.0196 3.2929 12.2071C3.48043 12.3946 3.73479 12.5 4 12.5H12C12.2652 12.5 12.5196 12.3946 12.7071 12.2071C12.8946 12.0196 13 11.7652 13 11.5V5.5Z"
                fill="#52545B" />
        </g>
        <defs>
            <clipPath id="clip0_98_1240">
                <rect width="16" height="16" fill="white" />
            </clipPath>
        </defs>
    </symbol>
    <symbol id="step" viewBox="0 0 16 16">
        <path
            d="M14 8.00036C14 8.13297 13.9473 8.26014 13.8536 8.35391C13.7598 8.44768 13.6326 8.50036 13.5 8.50036H6.50003C6.36742 8.50036 6.24024 8.44768 6.14647 8.35391C6.05271 8.26014 6.00003 8.13297 6.00003 8.00036C6.00003 7.86775 6.05271 7.74057 6.14647 7.6468C6.24024 7.55304 6.36742 7.50036 6.50003 7.50036H13.5C13.6326 7.50036 13.7598 7.55304 13.8536 7.6468C13.9473 7.74057 14 7.86775 14 8.00036ZM6.50003 4.50036H13.5C13.6326 4.50036 13.7598 4.44768 13.8536 4.35391C13.9473 4.26014 14 4.13297 14 4.00036C14 3.86775 13.9473 3.74057 13.8536 3.6468C13.7598 3.55304 13.6326 3.50036 13.5 3.50036H6.50003C6.36742 3.50036 6.24024 3.55304 6.14647 3.6468C6.05271 3.74057 6.00003 3.86775 6.00003 4.00036C6.00003 4.13297 6.05271 4.26014 6.14647 4.35391C6.24024 4.44768 6.36742 4.50036 6.50003 4.50036ZM13.5 11.5004H6.50003C6.36742 11.5004 6.24024 11.553 6.14647 11.6468C6.05271 11.7406 6.00003 11.8678 6.00003 12.0004C6.00003 12.133 6.05271 12.2601 6.14647 12.3539C6.24024 12.4477 6.36742 12.5004 6.50003 12.5004H13.5C13.6326 12.5004 13.7598 12.4477 13.8536 12.3539C13.9473 12.2601 14 12.133 14 12.0004C14 11.8678 13.9473 11.7406 13.8536 11.6468C13.7598 11.553 13.6326 11.5004 13.5 11.5004ZM2.72378 3.44786L3.00003 3.30911V6.50036C3.00003 6.63297 3.05271 6.76014 3.14647 6.85391C3.24024 6.94768 3.36742 7.00036 3.50003 7.00036C3.63264 7.00036 3.75981 6.94768 3.85358 6.85391C3.94735 6.76014 4.00003 6.63297 4.00003 6.50036V2.50036C4.00009 2.41509 3.97834 2.33122 3.93685 2.25672C3.89536 2.18222 3.83551 2.11957 3.76298 2.07473C3.69045 2.02988 3.60766 2.00433 3.52247 2.0005C3.43729 1.99668 3.35254 2.0147 3.27628 2.05286L2.27628 2.55286C2.15759 2.6122 2.06734 2.71626 2.02538 2.84214C2.00461 2.90447 1.99631 2.97029 2.00097 3.03583C2.00562 3.10136 2.02314 3.16534 2.05253 3.22411C2.08191 3.28287 2.12258 3.33528 2.17222 3.37833C2.22185 3.42138 2.27948 3.45423 2.34181 3.475C2.4677 3.51696 2.60509 3.5072 2.72378 3.44786ZM4.98565 9.79536C4.958 9.59733 4.8906 9.40694 4.78749 9.23563C4.68438 9.06431 4.5477 8.91562 4.38565 8.79848C4.06109 8.56281 3.65797 8.46178 3.26063 8.51653C2.86328 8.57128 2.5025 8.77757 2.25378 9.09223C2.15871 9.2143 2.08342 9.35054 2.03065 9.49598C2.0031 9.55858 1.98868 9.62617 1.98829 9.69456C1.9879 9.76296 2.00154 9.83071 2.02838 9.89362C2.05522 9.95653 2.09468 10.0133 2.14432 10.0603C2.19396 10.1074 2.25273 10.1437 2.31698 10.1672C2.38124 10.1906 2.44962 10.2006 2.51789 10.1965C2.58617 10.1925 2.65289 10.1745 2.71392 10.1436C2.77496 10.1127 2.82901 10.0697 2.87274 10.0171C2.91647 9.9645 2.94894 9.9035 2.96815 9.83786C2.98565 9.78991 3.01054 9.745 3.0419 9.70473C3.1301 9.59483 3.25728 9.52318 3.39698 9.50467C3.53667 9.48616 3.67812 9.52222 3.7919 9.60536C3.84663 9.64407 3.89292 9.69351 3.92795 9.75067C3.96297 9.80783 3.98601 9.87152 3.99565 9.93786C4.00447 10.0016 4.00033 10.0664 3.98347 10.1285C3.9666 10.1906 3.93737 10.2486 3.89753 10.2991C3.89571 10.3013 3.89404 10.3036 3.89253 10.306L2.0994 12.701C2.04384 12.7753 2.01005 12.8636 2.00184 12.9561C1.99362 13.0485 2.01129 13.1414 2.05287 13.2244C2.09445 13.3074 2.1583 13.3771 2.23727 13.4258C2.31624 13.4746 2.40722 13.5004 2.50003 13.5004H4.50003C4.63264 13.5004 4.75981 13.4477 4.85358 13.3539C4.94735 13.2601 5.00003 13.133 5.00003 13.0004C5.00003 12.8678 4.94735 12.7406 4.85358 12.6468C4.75981 12.553 4.63264 12.5004 4.50003 12.5004H3.50003L4.69253 10.9047C4.81343 10.749 4.9017 10.5705 4.95206 10.3799C5.00243 10.1893 5.01385 9.99048 4.98565 9.79536Z"
            fill="#52545B" />
    </symbol>


</svg>