<svg fill="none" xmlns="http://www.w3.org/2000/svg">
    <!-- Search -->
    <symbol id="search" width="21" height="21" viewBox="0 0 21 21">
        <path
            d="M1 20L5.486 15.506M3 9.5C3 11.7543 3.89553 13.9163 5.48959 15.5104C7.08365 17.1045 9.24566 18 11.5 18C13.7543 18 15.9163 17.1045 17.5104 15.5104C19.1045 13.9163 20 11.7543 20 9.5C20 7.24566 19.1045 5.08365 17.5104 3.48959C15.9163 1.89553 13.7543 1 11.5 1C9.24566 1 7.08365 1.89553 5.48959 3.48959C3.89553 5.08365 3 7.24566 3 9.5V9.5Z"
            stroke="#808080" stroke-width="2" stroke-linecap="round" />
    </symbol>

    <!-- bag -->
    <symbol id="bag" width="30" height="31" viewBox="0 0 30 31">
        <path
            d="M19.2859 14.4285V7.88092C19.2859 6.49169 18.778 5.15936 17.8738 4.17702C16.9696 3.19469 15.7432 2.64282 14.4645 2.64282C13.1858 2.64282 11.9594 3.19469 11.0552 4.17702C10.151 5.15936 9.64307 6.49169 9.64307 7.88092V14.4285"
            stroke="#202020" stroke-width="2" stroke-linecap="round" stroke-linejoin="round" />
        <rect x="5.28564" y="10.0715" width="18.3571" height="18.3571" rx="3.6" stroke="#202020"
            stroke-width="2" />
    </symbol>

    <!-- delivery -->
    <symbol id="delivery" width="20" height="20" viewBox="0 0 20 20">
        <path
            d="M16.25 3.12496H13.0625C12.9191 2.41853 12.5358 1.78341 11.9777 1.32722C11.4195 0.871033 10.7208 0.621826 10 0.621826C9.27915 0.621826 8.58047 0.871033 8.02234 1.32722C7.46421 1.78341 7.08095 2.41853 6.9375 3.12496H3.75C3.58424 3.12496 3.42527 3.19081 3.30806 3.30802C3.19085 3.42523 3.125 3.5842 3.125 3.74996C3.125 3.91572 3.19085 4.07469 3.30806 4.1919C3.42527 4.30911 3.58424 4.37496 3.75 4.37496H6.9375C7.07299 5.0342 7.41769 5.63207 7.92031 6.07965C7.04981 6.47864 6.312 7.11892 5.79439 7.92456C5.27678 8.73019 5.00108 9.66738 5 10.625V15.625C5 15.9565 5.1317 16.2744 5.36612 16.5088C5.60054 16.7433 5.91848 16.875 6.25 16.875H7.5C7.5 17.538 7.76339 18.1739 8.23223 18.6427C8.70107 19.1116 9.33696 19.375 10 19.375C10.663 19.375 11.2989 19.1116 11.7678 18.6427C12.2366 18.1739 12.5 17.538 12.5 16.875H13.75C14.0815 16.875 14.3995 16.7433 14.6339 16.5088C14.8683 16.2744 15 15.9565 15 15.625V10.625C14.9989 9.66738 14.7232 8.73019 14.2056 7.92456C13.688 7.11892 12.9502 6.47864 12.0797 6.07965C12.5823 5.63207 12.927 5.0342 13.0625 4.37496H16.25C16.4158 4.37496 16.5747 4.30911 16.6919 4.1919C16.8092 4.07469 16.875 3.91572 16.875 3.74996C16.875 3.5842 16.8092 3.42523 16.6919 3.30802C16.5747 3.19081 16.4158 3.12496 16.25 3.12496ZM11.25 16.875C11.25 17.2065 11.1183 17.5244 10.8839 17.7588C10.6495 17.9933 10.3315 18.125 10 18.125C9.66848 18.125 9.35054 17.9933 9.11612 17.7588C8.8817 17.5244 8.75 17.2065 8.75 16.875V13.125C8.75 12.7934 8.8817 12.4755 9.11612 12.2411C9.35054 12.0067 9.66848 11.875 10 11.875C10.3315 11.875 10.6495 12.0067 10.8839 12.2411C11.1183 12.4755 11.25 12.7934 11.25 13.125V16.875ZM13.75 10.625V15.625H12.5V13.125C12.5 12.4619 12.2366 11.826 11.7678 11.3572C11.2989 10.8884 10.663 10.625 10 10.625C9.33696 10.625 8.70107 10.8884 8.23223 11.3572C7.76339 11.826 7.5 12.4619 7.5 13.125V15.625H6.25V10.625C6.25 9.6304 6.64509 8.67657 7.34835 7.97331C8.05161 7.27005 9.00544 6.87496 10 6.87496C10.9946 6.87496 11.9484 7.27005 12.6517 7.97331C13.3549 8.67657 13.75 9.6304 13.75 10.625ZM8.125 3.74996C8.125 3.37912 8.23497 3.01661 8.44099 2.70826C8.64702 2.39992 8.93986 2.1596 9.28247 2.01768C9.62508 1.87577 10.0021 1.83864 10.3658 1.91099C10.7295 1.98333 11.0636 2.16191 11.3258 2.42413C11.588 2.68636 11.7666 3.02045 11.839 3.38417C11.9113 3.74788 11.8742 4.12488 11.7323 4.46749C11.5904 4.8101 11.35 5.10294 11.0417 5.30896C10.7334 5.51499 10.3708 5.62496 10 5.62496C9.50272 5.62496 9.02581 5.42742 8.67417 5.07578C8.32254 4.72415 8.125 4.24724 8.125 3.74996Z"
            fill="currentColor" />
    </symbol>

    <!-- pre-order -->
    <symbol id="pre-order" width="20" height="20" viewBox="0 0 20 20">
        <path
            d="M16.875 5H13.75C13.75 4.00544 13.3549 3.05161 12.6517 2.34835C11.9484 1.64509 10.9946 1.25 10 1.25C9.00544 1.25 8.05161 1.64509 7.34835 2.34835C6.64509 3.05161 6.25 4.00544 6.25 5H3.125C2.79348 5 2.47554 5.1317 2.24112 5.36612C2.0067 5.60054 1.875 5.91848 1.875 6.25V15.625C1.875 15.9565 2.0067 16.2745 2.24112 16.5089C2.47554 16.7433 2.79348 16.875 3.125 16.875H16.875C17.2065 16.875 17.5245 16.7433 17.7589 16.5089C17.9933 16.2745 18.125 15.9565 18.125 15.625V6.25C18.125 5.91848 17.9933 5.60054 17.7589 5.36612C17.5245 5.1317 17.2065 5 16.875 5ZM10 2.5C10.663 2.5 11.2989 2.76339 11.7678 3.23223C12.2366 3.70107 12.5 4.33696 12.5 5H7.5C7.5 4.33696 7.76339 3.70107 8.23223 3.23223C8.70107 2.76339 9.33696 2.5 10 2.5ZM16.875 15.625H3.125V6.25H6.25V7.5C6.25 7.66576 6.31585 7.82473 6.43306 7.94194C6.55027 8.05915 6.70924 8.125 6.875 8.125C7.04076 8.125 7.19973 8.05915 7.31694 7.94194C7.43415 7.82473 7.5 7.66576 7.5 7.5V6.25H12.5V7.5C12.5 7.66576 12.5658 7.82473 12.6831 7.94194C12.8003 8.05915 12.9592 8.125 13.125 8.125C13.2908 8.125 13.4497 8.05915 13.5669 7.94194C13.6842 7.82473 13.75 7.66576 13.75 7.5V6.25H16.875V15.625Z"
            fill="#BC5500" />
    </symbol>

    <!-- price tag -->
    <symbol id="tag" width="22" height="22" viewBox="0 0 22 22">
        <path opacity="0.75"
            d="M20.4194 1.58928C20.2343 1.40207 20.0138 1.25355 19.7708 1.15238C19.5278 1.05122 19.267 0.999418 19.0038 1H13.516C13.156 1.00068 12.8108 1.14328 12.5553 1.39687L1.58458 12.3654C1.21024 12.7405 1 13.2488 1 13.7787C1 14.3087 1.21024 14.817 1.58458 15.1921L6.80767 20.4152C7.18288 20.7897 7.69135 21 8.22147 21C8.7516 21 9.26007 20.7897 9.63528 20.4152L20.6015 9.45114C20.8556 9.19604 20.9987 8.85095 20.9997 8.49089V2.99996C21.0014 2.73809 20.9509 2.47851 20.8513 2.23633C20.7516 1.99414 20.6048 1.77419 20.4194 1.58928V1.58928ZM16.7141 6.71415C16.4316 6.71415 16.1554 6.63037 15.9205 6.4734C15.6855 6.31643 15.5025 6.09332 15.3943 5.83229C15.2862 5.57126 15.2579 5.28403 15.313 5.00692C15.3682 4.72981 15.5042 4.47527 15.704 4.27549C15.9038 4.0757 16.1583 3.93965 16.4354 3.88453C16.7125 3.82941 16.9998 3.8577 17.2608 3.96582C17.5218 4.07394 17.7449 4.25704 17.9019 4.49196C18.0589 4.72688 18.1427 5.00308 18.1427 5.28561C18.1427 5.66449 17.9922 6.02784 17.7243 6.29574C17.4563 6.56364 17.093 6.71415 16.7141 6.71415Z"
            stroke="#BC5500" stroke-width="1.5" />
    </symbol>

    <!-- delivery time -->
    <symbol id="box" width="22" height="20" viewBox="0 0 22 20">
        <g opacity="0.75">
            <path
                d="M8.90123 13.4567L11.8642 14.4444C11.8642 14.4444 19.2716 12.9629 20.2593 12.9629C21.2469 12.9629 21.2469 13.9505 20.2593 14.9382C19.2716 15.9259 15.8148 18.8888 12.8519 18.8888C9.88889 18.8888 7.91358 17.4073 5.93827 17.4073H1"
                stroke="#BC5500" stroke-width="1.5" stroke-linecap="round" stroke-linejoin="round" />
            <path
                d="M1 11.4815C1.98765 10.4938 3.96296 9.01232 5.93827 9.01232C7.91358 9.01232 12.6049 10.9876 13.3457 11.9753C14.0864 12.9629 11.8642 14.4444 11.8642 14.4444M6.92593 6.04936V2.09874C6.92593 1.8368 7.02998 1.58558 7.2152 1.40036C7.40042 1.21514 7.65164 1.11108 7.91358 1.11108H19.7654C20.0274 1.11108 20.2786 1.21514 20.4638 1.40036C20.649 1.58558 20.7531 1.8368 20.7531 2.09874V9.99997"
                stroke="#BC5500" stroke-width="1.5" stroke-linecap="round" stroke-linejoin="round" />
            <path d="M11.3701 1.11108H16.3084V5.55553H11.3701V1.11108Z" stroke="#BC5500"
                stroke-width="1.5" stroke-linecap="round" stroke-linejoin="round" />
        </g>
    </symbol>

    <!-- facebook -->
    <symbol id="facebook" width="24" height="24" viewBox="0 0 24 24">
        <path
            d="M18 6.3H14.9935C14.4505 6.3 14.01 6.74 14.01 7.2835V10.7335H18L17.4155 14.532H14.0105V21.5H9.6225V14.532H6V10.7335H9.5755L9.6225 7.1285L9.616 6.4735C9.61078 5.95361 9.70867 5.43784 9.904 4.95601C10.0993 4.47418 10.3882 4.03584 10.754 3.66635C11.1198 3.29686 11.5552 3.00353 12.035 2.80334C12.5148 2.60314 13.0296 2.50004 13.5495 2.5H18V6.3Z"
            stroke="white" stroke-width="1.6" stroke-linejoin="round" />
    </symbol>

    <!-- instagram -->
    <symbol id="insta" width="22" height="22" viewBox="0 0 22 22">
        <path fill-rule="evenodd" clip-rule="evenodd"
            d="M6.465 0.066C7.638 0.012 8.012 0 11 0C13.988 0 14.362 0.013 15.534 0.066C16.706 0.119 17.506 0.306 18.206 0.577C18.939 0.854 19.604 1.287 20.154 1.847C20.714 2.396 21.146 3.06 21.422 3.794C21.694 4.494 21.88 5.294 21.934 6.464C21.988 7.639 22 8.013 22 11C22 13.988 21.987 14.362 21.934 15.535C21.881 16.705 21.694 17.505 21.422 18.205C21.146 18.9391 20.7133 19.6042 20.154 20.154C19.604 20.714 18.939 21.146 18.206 21.422C17.506 21.694 16.706 21.88 15.536 21.934C14.362 21.988 13.988 22 11 22C8.012 22 7.638 21.987 6.465 21.934C5.295 21.881 4.495 21.694 3.795 21.422C3.06092 21.146 2.39582 20.7133 1.846 20.154C1.28638 19.6047 0.853315 18.9399 0.577 18.206C0.306 17.506 0.12 16.706 0.066 15.536C0.012 14.361 0 13.987 0 11C0 8.012 0.013 7.638 0.066 6.466C0.119 5.294 0.306 4.494 0.577 3.794C0.853723 3.06008 1.28712 2.39531 1.847 1.846C2.39604 1.2865 3.06047 0.853443 3.794 0.577C4.494 0.306 5.294 0.12 6.464 0.066H6.465ZM15.445 2.046C14.285 1.993 13.937 1.982 11 1.982C8.063 1.982 7.715 1.993 6.555 2.046C5.482 2.095 4.9 2.274 4.512 2.425C3.999 2.625 3.632 2.862 3.247 3.247C2.88205 3.60205 2.60118 4.03428 2.425 4.512C2.274 4.9 2.095 5.482 2.046 6.555C1.993 7.715 1.982 8.063 1.982 11C1.982 13.937 1.993 14.285 2.046 15.445C2.095 16.518 2.274 17.1 2.425 17.488C2.601 17.965 2.882 18.398 3.247 18.753C3.602 19.118 4.035 19.399 4.512 19.575C4.9 19.726 5.482 19.905 6.555 19.954C7.715 20.007 8.062 20.018 11 20.018C13.938 20.018 14.285 20.007 15.445 19.954C16.518 19.905 17.1 19.726 17.488 19.575C18.001 19.375 18.368 19.138 18.753 18.753C19.118 18.398 19.399 17.965 19.575 17.488C19.726 17.1 19.905 16.518 19.954 15.445C20.007 14.285 20.018 13.937 20.018 11C20.018 8.063 20.007 7.715 19.954 6.555C19.905 5.482 19.726 4.9 19.575 4.512C19.375 3.999 19.138 3.632 18.753 3.247C18.3979 2.88207 17.9657 2.60121 17.488 2.425C17.1 2.274 16.518 2.095 15.445 2.046ZM9.595 14.391C10.3797 14.7176 11.2534 14.7617 12.0669 14.5157C12.8805 14.2697 13.5834 13.7489 14.0556 13.0422C14.5278 12.3356 14.7401 11.4869 14.656 10.6411C14.572 9.79534 14.197 9.00497 13.595 8.405C13.2112 8.02148 12.7472 7.72781 12.2363 7.54515C11.7255 7.36248 11.1804 7.29536 10.6405 7.34862C10.1006 7.40187 9.57915 7.57418 9.1138 7.85313C8.64845 8.13208 8.25074 8.51074 7.9493 8.96185C7.64786 9.41296 7.45019 9.92529 7.37052 10.462C7.29084 10.9986 7.33115 11.5463 7.48854 12.0655C7.64593 12.5847 7.91648 13.0626 8.28072 13.4647C8.64496 13.8668 9.09382 14.1832 9.595 14.391ZM7.002 7.002C7.52702 6.47697 8.15032 6.0605 8.8363 5.77636C9.52228 5.49222 10.2575 5.34597 11 5.34597C11.7425 5.34597 12.4777 5.49222 13.1637 5.77636C13.8497 6.0605 14.473 6.47697 14.998 7.002C15.523 7.52702 15.9395 8.15032 16.2236 8.8363C16.5078 9.52228 16.654 10.2575 16.654 11C16.654 11.7425 16.5078 12.4777 16.2236 13.1637C15.9395 13.8497 15.523 14.473 14.998 14.998C13.9377 16.0583 12.4995 16.654 11 16.654C9.50046 16.654 8.06234 16.0583 7.002 14.998C5.94166 13.9377 5.34597 12.4995 5.34597 11C5.34597 9.50046 5.94166 8.06234 7.002 7.002ZM17.908 6.188C18.0381 6.06527 18.1423 5.91768 18.2143 5.75397C18.2863 5.59027 18.3248 5.41377 18.3274 5.23493C18.33 5.05609 18.2967 4.87855 18.2295 4.71281C18.1622 4.54707 18.0624 4.39651 17.936 4.27004C17.8095 4.14357 17.6589 4.04376 17.4932 3.97652C17.3275 3.90928 17.1499 3.87598 16.9711 3.87858C16.7922 3.88119 16.6157 3.91965 16.452 3.9917C16.2883 4.06374 16.1407 4.1679 16.018 4.298C15.7793 4.55103 15.6486 4.88712 15.6537 5.23493C15.6588 5.58274 15.7992 5.91488 16.0452 6.16084C16.2911 6.40681 16.6233 6.54723 16.9711 6.5523C17.3189 6.55737 17.655 6.42669 17.908 6.188Z"
            fill="white" />
    </symbol>

    <!-- twitter -->
    <symbol id="twitter" width="22" height="22" viewBox="0 0 22 22">
        <path
            d="M21.0834 2.75922C21.0834 2.75922 19.2336 3.85188 18.2051 4.16172C17.653 3.52694 16.9193 3.07702 16.1032 2.87282C15.2871 2.66861 14.428 2.71998 13.642 3.01997C12.856 3.31995 12.1812 3.85409 11.7086 4.55012C11.2361 5.24616 10.9888 6.07053 11.0001 6.91172V7.82838C9.38916 7.87016 7.79292 7.51288 6.35351 6.78838C4.9141 6.06387 3.67621 4.99463 2.75008 3.67588C2.75008 3.67588 -0.916585 11.9259 7.33341 15.5926C5.44556 16.874 3.19664 17.5166 0.916748 17.4259C9.16675 22.0092 19.2501 17.4259 19.2501 6.88422C19.2501 6.62938 19.2244 6.37455 19.1767 6.12338C20.1117 5.20122 21.0834 2.75922 21.0834 2.75922Z"
            stroke="white" stroke-width="1.6" stroke-linecap="round" stroke-linejoin="round" />
    </symbol>

    <!-- star -->
    <symbol id="star" width="21" height="21" viewBox="0 0 21 21">
        <path opacity="0.75"
            d="M20.2666 7.54257L13.9881 6.6301L11.1815 0.940169C11.1049 0.784382 10.9787 0.658269 10.823 0.581612C10.4322 0.388733 9.95747 0.549465 9.76212 0.940169L6.95548 6.6301L0.677016 7.54257C0.50392 7.5673 0.34566 7.6489 0.224492 7.77254C0.0780074 7.9231 -0.00271244 8.12566 6.95995e-05 8.3357C0.00285164 8.54575 0.088908 8.74609 0.239329 8.89272L4.78188 13.3215L3.70868 19.5753C3.68351 19.7207 3.69961 19.8703 3.75515 20.0071C3.81069 20.1439 3.90344 20.2624 4.0229 20.3492C4.14235 20.4359 4.28372 20.4875 4.43099 20.498C4.57825 20.5085 4.72551 20.4775 4.85606 20.4086L10.4718 17.4561L16.0876 20.4086C16.2409 20.4902 16.4189 20.5174 16.5895 20.4877C17.0198 20.4135 17.3091 20.0055 17.2349 19.5753L16.1617 13.3215L20.7043 8.89272C20.8279 8.77156 20.9095 8.6133 20.9343 8.4402C21.001 8.00746 20.6993 7.60686 20.2666 7.54257Z"
            fill="#1AC84B" />
    </symbol>

    <!-- fav -->
    <symbol id="fav" width="22" height="20" viewBox="0 0 22 20">
        <path opacity="0.75"
            d="M4.55122 19.8492L4.84504 19.4446C4.80119 19.4128 4.76713 19.3693 4.74674 19.3191C4.72635 19.2688 4.72044 19.2139 4.72968 19.1605L4.7298 19.1598L5.803 12.9061L5.84746 12.647L5.65924 12.4635L1.11669 8.03472L1.11666 8.03468C1.06114 7.98056 1.02937 7.90661 1.02835 7.82908C1.02732 7.75185 1.05689 7.67735 1.11057 7.62185C1.1562 7.57557 1.21414 7.54639 1.27605 7.53755L1.27725 7.53737L7.55571 6.62491L7.8159 6.58709L7.93221 6.35129L10.7376 0.663776C10.7378 0.663467 10.738 0.66316 10.7381 0.662852C10.8115 0.517413 10.9878 0.459775 11.1299 0.529955L11.1305 0.530241C11.1873 0.558171 11.2333 0.604162 11.2612 0.660924L11.2614 0.661356L14.0681 6.35129L14.1844 6.58709L14.4446 6.62491L20.7214 7.53714C20.7217 7.53717 20.7219 7.53721 20.7221 7.53724C20.8861 7.56197 20.992 7.71124 20.9684 7.86396L20.9684 7.86395L20.9676 7.86949C20.9588 7.93149 20.9295 7.98953 20.8831 8.03519C20.8829 8.03533 20.8828 8.03547 20.8827 8.03562L16.341 12.4635L16.1528 12.647L16.1973 12.9061L17.2705 19.1598L17.2705 19.1602C17.2976 19.3171 17.1923 19.4675 17.0329 19.495L17.0322 19.4951C16.9688 19.5061 16.9038 19.4955 16.8508 19.4672L16.8486 19.466L11.2328 16.5135L11.0001 16.3912L10.7675 16.5135L5.1517 19.466L5.15093 19.4664C5.103 19.4917 5.04893 19.5031 4.99487 19.4993C4.9408 19.4954 4.8889 19.4765 4.84505 19.4446L4.55122 19.8492Z"
            stroke="#404040" />
    </symbol>

    <!-- location -->
    <symbol id="location" width="26" height="32" viewBox="0 0 26 32">
        <path
            d="M12.5714 0C9.2385 0.00393197 6.04319 1.32968 3.68644 3.68643C1.32969 6.04318 0.00394534 9.23849 1.33747e-05 12.5714C-0.0039785 15.2951 0.885705 17.9449 2.53258 20.1143C2.53258 20.1143 2.87544 20.5657 2.93144 20.6309L12.5714 32L22.216 20.6251C22.2663 20.5646 22.6103 20.1143 22.6103 20.1143L22.6114 20.1109C24.2575 17.9424 25.1468 15.2939 25.1429 12.5714C25.1389 9.23849 23.8132 6.04318 21.4564 3.68643C19.0997 1.32968 15.9044 0.00393197 12.5714 0ZM12.5714 17.1429C11.6673 17.1429 10.7835 16.8747 10.0317 16.3724C9.27993 15.8701 8.69399 15.1562 8.34799 14.3208C8.00199 13.4855 7.91146 12.5664 8.08785 11.6796C8.26424 10.7928 8.69963 9.97827 9.33895 9.33894C9.97828 8.69961 10.7928 8.26423 11.6796 8.08784C12.5664 7.91145 13.4855 8.00198 14.3209 8.34798C15.1562 8.69398 15.8701 9.27991 16.3724 10.0317C16.8748 10.7834 17.1429 11.6673 17.1429 12.5714C17.1414 13.7834 16.6592 14.9453 15.8023 15.8022C14.9453 16.6592 13.7834 17.1413 12.5714 17.1429Z"
            fill="currentColor" />
    </symbol>

    <!-- schedule -->
    <symbol id="schedule" width="20" height="20" viewBox="0 0 20 20">
        <path
            d="M17 2H15V1C15 0.734784 14.8946 0.48043 14.7071 0.292893C14.5196 0.105357 14.2652 0 14 0C13.7348 0 13.4804 0.105357 13.2929 0.292893C13.1054 0.48043 13 0.734784 13 1V2H7V1C7 0.734784 6.89464 0.48043 6.70711 0.292893C6.51957 0.105357 6.26522 0 6 0C5.73478 0 5.48043 0.105357 5.29289 0.292893C5.10536 0.48043 5 0.734784 5 1V2H3C2.20435 2 1.44129 2.31607 0.87868 2.87868C0.316071 3.44129 0 4.20435 0 5V17C0 17.7956 0.316071 18.5587 0.87868 19.1213C1.44129 19.6839 2.20435 20 3 20H17C17.7956 20 18.5587 19.6839 19.1213 19.1213C19.6839 18.5587 20 17.7956 20 17V5C20 4.20435 19.6839 3.44129 19.1213 2.87868C18.5587 2.31607 17.7956 2 17 2ZM18 17C18 17.2652 17.8946 17.5196 17.7071 17.7071C17.5196 17.8946 17.2652 18 17 18H3C2.73478 18 2.48043 17.8946 2.29289 17.7071C2.10536 17.5196 2 17.2652 2 17V10H18V17ZM18 8H2V5C2 4.73478 2.10536 4.48043 2.29289 4.29289C2.48043 4.10536 2.73478 4 3 4H5V5C5 5.26522 5.10536 5.51957 5.29289 5.70711C5.48043 5.89464 5.73478 6 6 6C6.26522 6 6.51957 5.89464 6.70711 5.70711C6.89464 5.51957 7 5.26522 7 5V4H13V5C13 5.26522 13.1054 5.51957 13.2929 5.70711C13.4804 5.89464 13.7348 6 14 6C14.2652 6 14.5196 5.89464 14.7071 5.70711C14.8946 5.51957 15 5.26522 15 5V4H17C17.2652 4 17.5196 4.10536 17.7071 4.29289C17.8946 4.48043 18 4.73478 18 5V8Z"
            fill="currentColor" />
    </symbol>


</svg>